<svg height="55.804249mm" viewBox="0 0 408.76181 197.73159" width="115.36166mm" xmlns="http://www.w3.org/2000/svg" xmlns:xlink="http://www.w3.org/1999/xlink"><marker id="a" orient="auto" overflow="visible" refX="0" refY="0"><path d="m0 0 5-5-17.5 5 17.5 5z" fill-rule="evenodd" stroke="#000" stroke-width="1pt" transform="matrix(-.4 0 0 -.4 -4 0)"/></marker><g transform="translate(-21.376673 -20.790775)"><path d="m90.441799 105.24448c.72613-.82744 1.31717-1.35093 2.1615-2.11083 1.0132-.87811 1.45226-1.30028 1.68867-1.55358 1.18207-1.16518 1.77311-2.144611 1.77311-2.279701 0-.1351-.1351-.1351-.16887-.1351-.11821 0-.15198.0675-.23641.18576-.42217.726121-.82745 1.080741-1.26651 1.080741-.35462 0-.54037-.15198-.86122-.557261-.35462-.42216-.64169-.70924-1.13141-.70924-1.23273 0-1.97574 1.536691-1.97574 1.891311 0 .0507.0169.15198.16887.15198.13509 0 .15198-.0675.20264-.18575.28707-.67547 1.09763-.79368 1.41848-.79368.35462 0 .69235.1182 1.04697.27019.6417.27019.91189.27019 1.08075.27019.11821 0 .18576 0 .27019-.0169-.55726.65858-1.46914 1.46914-2.22904 2.1615l-1.70556 1.57046c-1.03009 1.04697-1.6549 2.04329-1.6549 2.1615 0 .10132.0844.13509.18576.13509.10132 0 .1182-.0169.23641-.21953.27019-.42216.81056-1.04697 1.43537-1.04697.35462 0 .52349.11821.86122.54037.32085.37151.60792.72613 1.1483.72613 1.65489 0 2.60055-2.14461 2.60055-2.533 0-.0675-.0169-.16887-.18575-.16887-.1351 0-.15198.0676-.20265.23641-.3715.99632-1.36782 1.4016-2.0264 1.4016-.35462 0-.69235-.11821-1.04698-.27019-.67546-.27019-.86122-.27019-1.08074-.27019-.16887 0-.35462 0-.5066.0675z"/><path d="m112.81992 101.14102c.23641 0 .54038 0 .54038-.30396 0-.32085-.28708-.32085-.54038-.32085h-9.94627c-.23641 0-.54037 0-.54037.30396 0 .32085.28707.32085.54037.32085zm0 3.14092c.23641 0 .54038 0 .54038-.30396 0-.32085-.28708-.32085-.54038-.32085h-9.94627c-.23641 0-.54037 0-.54037.30396 0 .32085.28707.32085.54037.32085z"/><path d="m124.73081 105.63288c.21953.94565 1.03009 1.14829 1.43537 1.14829.54038 0 .94566-.35462 1.21584-.92876.28708-.60793.50661-1.60424.50661-1.6549 0-.0844-.0676-.15198-.16887-.15198-.15198 0-.16887.0844-.23642.33773-.30396 1.16518-.60792 2.06018-1.28338 2.06018-.50661 0-.50661-.55726-.50661-.77679 0-.38839.0507-.55726.21953-1.2665.1182-.45594.23642-.91188.33774-1.38471l.69235-2.75253c.1182-.422171.1182-.455941.1182-.506601 0-.2533-.20264-.42217-.45594-.42217-.48971 0-.60792.42217-.70924.844331-.16887.65859-1.08075 4.28923-1.19896 4.88026-.0169 0-.67547 1.38471-1.90819 1.38471-.87811 0-1.04698-.7599-1.04698-1.38471 0-.96254.47283-2.31348.91188-3.44489.20264-.54037.28708-.7599.28708-1.09763 0-.726131-.52349-1.350941-1.33405-1.350941-1.55358 0-2.17839 2.448571-2.17839 2.583671 0 .0675.0675.15198.18576.15198.15198 0 .16886-.0675.23641-.30396.40528-1.45226 1.06386-2.093951 1.70556-2.093951.16886 0 .43905.0169.43905.557261 0 .43905-.18575.92877-.43905 1.57046-.74302 2.00952-.82745 2.65121-.82745 3.15781 0 1.72245 1.30027 1.99263 1.99263 1.99263 1.08075 0 1.67178-.74301 2.00952-1.14829z"/><path d="m133.8713 110.71577c0-.0507 0-.0844-.28707-.3715-1.68867-1.70556-2.63433-4.49186-2.63433-7.93675 0-3.276021.79368-6.096103 2.75254-8.088733.16886-.15198.16886-.18575.16886-.23641 0-.10133-.0844-.1351-.15198-.1351-.21952 0-1.60423 1.21584-2.43168 2.87074-.86122 1.70556-1.24962 3.512433-1.24962 5.589503 0 1.50291.23642 3.51243 1.11452 5.31931.99632 2.0264 2.38103 3.12404 2.56678 3.12404.0676 0 .15198-.0338.15198-.1351z"/><path d="m171.06173 102.40752c0-1.28339-.16887-3.377341-1.11453-5.336203-.99631-2.0264-2.38102-3.12404-2.56677-3.12404-.0675 0-.15198.0338-.15198.1351 0 .0507 0 .0844.28707.3715 1.68867 1.70556 2.63432 4.491872 2.63432 7.936753 0 3.27602-.79367 6.0961-2.75253 8.08873-.16886.15198-.16886.18575-.16886.23641 0 .10133.0844.1351.15198.1351.21952 0 1.60423-1.21584 2.43168-2.87074.86122-1.72244 1.24962-3.54621 1.24962-5.57261z"/><path d="m21.726673 132.81523h214.28572v85.357132h-214.28572z" fill="#cdcdcd" stroke="#000" stroke-width=".7"/><path d="m36.191127 173.93268c-.10132-.94565-.692354-2.07706-2.212158-2.07706-2.381024 0-4.812709 2.4148-4.812709 5.09978 0 1.03009.709241 2.97206 3.005832 2.97206 3.985262 0 5.690819-5.80902 5.690819-8.1225 0-2.43169-1.367823-4.30611-3.529321-4.30611-2.448572 0-3.1747 2.14461-3.1747 2.60055 0 .15198.10132.52349.574148.52349.591035 0 .844335-.54037.844335-.82745 0-.52349-.523487-.52349-.743015-.52349.692355-1.24961 1.975744-1.36782 2.431685-1.36782 1.48603 0 2.431686 1.18207 2.431686 3.07338 0 1.08075-.320848 2.33036-.489715 2.95517h-.01689zm-3.968374 5.53884c-1.58735 0-1.857538-1.24961-1.857538-1.95886 0-.74301.472828-2.48234.726129-3.10715.219527-.5066 1.182069-2.21216 2.938286-2.21216 1.536689 0 1.89131 1.33405 1.89131 2.24593 0 1.24962-1.097636 5.03224-3.698187 5.03224z"/><path d="m40.316413 178.20502c.726127-.82745 1.317162-1.35094 2.161497-2.11084 1.013202-.87811 1.452257-1.30028 1.68867-1.55358 1.182069-1.16518 1.773103-2.14461 1.773103-2.2797s-.135093-.13509-.168866-.13509c-.118213 0-.15198.0676-.236414.18575-.422168.72613-.827449 1.08075-1.266503 1.08075-.354621 0-.540375-.15198-.861222-.55726-.35462-.42217-.641694-.70924-1.131409-.70924-1.232729 0-1.975744 1.53669-1.975744 1.89131 0 .0507.01689.15198.168868.15198.135093 0 .15198-.0675.20264-.18576.287073-.67547 1.097636-.79367 1.418482-.79367.354621 0 .692355.1182 1.046977.27019.641693.27018.911881.27018 1.080748.27018.118213 0 .185754 0 .270188-.0169-.557261.65859-1.469144 1.46915-2.229045 2.1615l-1.705557 1.57047c-1.030089 1.04697-1.654897 2.04329-1.654897 2.16149 0 .10133.08444.1351.185753.1351.101325 0 .118213-.0169.236414-.21953.270188-.42217.810563-1.04697 1.43537-1.04697.354622 0 .523488.11821.861222.54037.320847.37151.607921.72613 1.148296.72613 1.654896 0 2.600551-2.14461 2.600551-2.53301 0-.0675-.01689-.16886-.185753-.16886-.135094 0-.15198.0676-.20264.23641-.371508.99631-1.367823 1.4016-2.026404 1.4016-.354622 0-.692355-.11822-1.046977-.27019-.675467-.27019-.861221-.27019-1.080748-.27019-.168867 0-.35462 0-.5066.0675z"/><path d="m25.655237 186.43742h23.819395v.67544h-23.819395z"/><path d="m33.321799 196.94039c-.10132-.94565-.692355-2.07706-2.212158-2.07706-2.381025 0-4.81271 2.4148-4.81271 5.09978 0 1.03009.709241 2.97206 3.005833 2.97206 3.985261 0 5.690818-5.80902 5.690818-8.1225 0-2.43169-1.367823-4.30611-3.529321-4.30611-2.448571 0-3.174699 2.14461-3.174699 2.60055 0 .15198.10132.52349.574148.52349.591034 0 .844335-.54037.844335-.82745 0-.52349-.523488-.52349-.743015-.52349.692354-1.24961 1.975744-1.36782 2.431685-1.36782 1.486029 0 2.431685 1.18207 2.431685 3.07338 0 1.08075-.320848 2.33037-.489715 2.95517h-.01689zm-3.968375 5.53884c-1.58735 0-1.857537-1.24962-1.857537-1.95886 0-.74301.472827-2.48234.726128-3.10715.219527-.5066 1.182069-2.21216 2.938286-2.21216 1.53669 0 1.89131 1.33405 1.89131 2.24593 0 1.24962-1.097635 5.03224-3.698187 5.03224z"/><path d="m44.506319 195.69078c-.540374.10132-.743014.5066-.743014.82745 0 .40528.320846.54037.557261.54037.5066 0 .861222-.43905.861222-.895 0-.70924-.810562-1.03008-1.519804-1.03008-1.030088 0-1.604237 1.0132-1.756217 1.33405-.388393-1.26651-1.43537-1.33405-1.73933-1.33405-1.722444 0-2.634325 2.21215-2.634325 2.58366 0 .0675.06755.15198.185753.15198.135094 0 .168867-.10132.202641-.16887.574147-1.87442 1.705556-2.22904 2.195271-2.22904.759901 0 .911882.70924.911882 1.11452 0 .37151-.101326.7599-.303961 1.57047l-.574147 2.31347c-.253301 1.01321-.743015 1.94197-1.63801 1.94197-.08444 0-.506601 0-.861222-.21952.607921-.11822.743014-.62481.743014-.82745 0-.33774-.2533-.54038-.574147-.54038-.405281 0-.844335.35462-.844335.895 0 .70924.793674 1.03009 1.519802 1.03009.810563 0 1.38471-.6417 1.73933-1.33405.270188.99631 1.114523 1.33405 1.739331 1.33405 1.722443 0 2.634326-2.21216 2.634326-2.58367 0-.0844-.06755-.15198-.168867-.15198-.15198 0-.168868.0844-.219528.21953-.45594 1.48603-1.435369 2.17838-2.19527 2.17838-.591035 0-.911883-.43905-.911883-1.1314 0-.37151.06755-.6417.337734-1.75622l.591035-2.29659c.2533-1.0132.827449-1.75622 1.604236-1.75622.03377 0 .506602 0 .861222.21953z"/><path d="m67.252385 185.52498c.236413 0 .540375 0 .540375-.30396 0-.32085-.287074-.32085-.540375-.32085h-9.946267c-.236414 0-.540374 0-.540374.30396 0 .32085.287074.32085.540374.32085zm0 3.14093c.236413 0 .540375 0 .540375-.30396 0-.32085-.287074-.32085-.540375-.32085h-9.946267c-.236414 0-.540374 0-.540374.30396 0 .32085.287074.32085.540374.32085z"/><path d="m94.783477 198.59571 2.043291-5.40374h-.422167c-.658582 1.75622-2.448573 2.90451-4.390543 3.41111-.354621.0844-2.009518.52349-5.251764.52349h-10.182681l8.595331-10.08136c.118212-.13509.15198-.18575.15198-.27019 0-.0338 0-.0844-.118213-.2533l-7.869203-10.75683h9.253912c2.262819 0 3.799508.23642 3.951489.27019.911881.13509 2.381024.42217 3.715074 1.2665.422168.27019 1.570463 1.03009 2.144612 2.39792h.422167l-2.043291-4.74517h-19.960081c-.388395 0-.405281.0169-.455941.11821-.01689.0507-.01689.37151-.01689.55727l8.933065 12.22597-8.747312 10.25023c-.168866.20264-.168866.28707-.168866.30396 0 .18575.15198.18575.455941.18575h19.960081z"/><path d="m111.95036 173.93268c-.10133-.94565-.69236-2.07706-2.21216-2.07706-2.38103 0-4.81271 2.4148-4.81271 5.09978 0 1.03009.70924 2.97206 3.00583 2.97206 3.98526 0 5.69082-5.80902 5.69082-8.1225 0-2.43169-1.36782-4.30611-3.52932-4.30611-2.44857 0-3.1747 2.14461-3.1747 2.60055 0 .15198.10133.52349.57415.52349.59103 0 .84433-.54037.84433-.82745 0-.52349-.52348-.52349-.74301-.52349.69235-1.24961 1.97574-1.36782 2.43168-1.36782 1.48603 0 2.43169 1.18207 2.43169 3.07338 0 1.08075-.32085 2.33036-.48972 2.95517h-.0169zm-3.96838 5.53884c-1.58735 0-1.85753-1.24961-1.85753-1.95886 0-.74301.47282-2.48234.72612-3.10715.21953-.5066 1.18207-2.21216 2.93829-2.21216 1.53669 0 1.89131 1.33405 1.89131 2.24593 0 1.24962-1.09764 5.03224-3.69819 5.03224z"/><path d="m116.07508 178.20502c.72613-.82745 1.31716-1.35094 2.1615-2.11084 1.0132-.87811 1.45225-1.30028 1.68867-1.55358 1.18207-1.16518 1.7731-2.14461 1.7731-2.2797s-.13509-.13509-.16887-.13509c-.11821 0-.15198.0676-.23641.18575-.42217.72613-.82745 1.08075-1.2665 1.08075-.35462 0-.54038-.15198-.86123-.55726-.35462-.42217-.64169-.70924-1.1314-.70924-1.23273 0-1.97575 1.53669-1.97575 1.89131 0 .0507.0169.15198.16887.15198.13509 0 .15198-.0675.20264-.18576.28707-.67547 1.09763-.79367 1.41848-.79367.35462 0 .69236.1182 1.04698.27019.64169.27018.91188.27018 1.08075.27018.11821 0 .18575 0 .27018-.0169-.55726.65859-1.46914 1.46915-2.22904 2.1615l-1.70556 1.57047c-1.03009 1.04697-1.6549 2.04329-1.6549 2.16149 0 .10133.0844.1351.18576.1351.10132 0 .11821-.0169.23641-.21953.27019-.42217.81056-1.04697 1.43537-1.04697.35462 0 .52349.11821.86122.54037.32085.37151.60793.72613 1.1483.72613 1.6549 0 2.60055-2.14461 2.60055-2.53301 0-.0675-.0169-.16886-.18575-.16886-.1351 0-.15198.0676-.20264.23641-.37151.99631-1.36782 1.4016-2.02641 1.4016-.35462 0-.69235-.11822-1.04697-.27019-.67547-.27019-.86122-.27019-1.08075-.27019-.16887 0-.35462 0-.5066.0675z"/><path d="m102.29989 186.43742h22.048264v.67544h-22.048264z"/><path d="m109.96645 196.94039c-.10132-.94565-.69235-2.07706-2.21215-2.07706-2.38103 0-4.81271 2.4148-4.81271 5.09978 0 1.03009.70924 2.97206 3.00583 2.97206 3.98526 0 5.69082-5.80902 5.69082-8.1225 0-2.43169-1.36783-4.30611-3.52932-4.30611-2.44857 0-3.1747 2.14461-3.1747 2.60055 0 .15198.10132.52349.57415.52349.59103 0 .84433-.54037.84433-.82745 0-.52349-.52349-.52349-.74301-.52349.69235-1.24961 1.97574-1.36782 2.43168-1.36782 1.48603 0 2.43169 1.18207 2.43169 3.07338 0 1.08075-.32085 2.33037-.48972 2.95517h-.0169zm-3.96837 5.53884c-1.58735 0-1.85754-1.24962-1.85754-1.95886 0-.74301.47283-2.48234.72613-3.10715.21953-.5066 1.18207-2.21216 2.93829-2.21216 1.53669 0 1.89131 1.33405 1.89131 2.24593 0 1.24962-1.09764 5.03224-3.69819 5.03224z"/><path d="m119.66491 196.26493c0-1.06387-.54037-1.13141-.67546-1.13141-.40528 0-.77679.40528-.77679.74301 0 .20264.11821.32085.18575.3884.16887.15198.60792.60792.60792 1.48602 0 .70925-1.0132 4.66073-3.0396 4.66073-1.03009 0-1.23273-.86122-1.23273-1.48603 0-.84433.38839-2.0264.84433-3.24224.27019-.69236.33774-.86122.33774-1.19896 0-.70924-.50661-1.35093-1.33405-1.35093-1.55358 0-2.17839 2.44857-2.17839 2.58366 0 .0675.0675.15198.18576.15198.15198 0 .16886-.0675.23641-.30396.40528-1.45226 1.06386-2.09395 1.70556-2.09395.15198 0 .43905 0 .43905.55726 0 .43906-.18575.92877-.43905 1.57046-.81057 2.1615-.81057 2.68499-.81057 3.09027 0 .37151.0507 1.06386.57415 1.53669.60792.52349 1.45226.52349 1.60424.52349 2.80319 0 3.76573-5.52195 3.76573-6.48449z"/><path d="m136.2772 173.93268c-.10132-.94565-.69235-2.07706-2.21216-2.07706-2.38102 0-4.81271 2.4148-4.81271 5.09978 0 1.03009.70924 2.97206 3.00584 2.97206 3.98526 0 5.69081-5.80902 5.69081-8.1225 0-2.43169-1.36782-4.30611-3.52932-4.30611-2.44857 0-3.1747 2.14461-3.1747 2.60055 0 .15198.10133.52349.57415.52349.59104 0 .84434-.54037.84434-.82745 0-.52349-.52349-.52349-.74302-.52349.69236-1.24961 1.97575-1.36782 2.43169-1.36782 1.48603 0 2.43168 1.18207 2.43168 3.07338 0 1.08075-.32085 2.33036-.48971 2.95517h-.0169zm-3.96837 5.53884c-1.58735 0-1.85754-1.24961-1.85754-1.95886 0-.74301.47283-2.48234.72613-3.10715.21952-.5066 1.18207-2.21216 2.93828-2.21216 1.53669 0 1.89131 1.33405 1.89131 2.24593 0 1.24962-1.09763 5.03224-3.69818 5.03224z"/><path d="m145.9758 173.25721c0-1.06386-.54037-1.1314-.67547-1.1314-.40528 0-.77679.40528-.77679.74301 0 .20264.11822.32085.18576.38839.16886.15199.60792.60793.60792 1.48603 0 .70925-1.0132 4.66073-3.03961 4.66073-1.03009 0-1.23273-.86122-1.23273-1.48602 0-.84434.3884-2.02641.84434-3.24225.27019-.69236.33773-.86122.33773-1.19896 0-.70924-.5066-1.35093-1.33405-1.35093-1.55357 0-2.17838 2.44857-2.17838 2.58366 0 .0675.0676.15198.18575.15198.15198 0 .16887-.0675.23642-.30396.40528-1.45226 1.06386-2.09395 1.70555-2.09395.15198 0 .43906 0 .43906.55726 0 .43906-.18576.92877-.43906 1.57046-.81056 2.1615-.81056 2.68499-.81056 3.09027 0 .37151.0507 1.06386.57415 1.53669.60792.52349 1.45226.52349 1.60424.52349 2.80319 0 3.76573-5.52195 3.76573-6.4845z"/><path d="m127.72549 186.43742h23.819395v.67544h-23.819395z"/><path d="m135.39206 196.94039c-.10133-.94565-.69236-2.07706-2.21216-2.07706-2.38102 0-4.81271 2.4148-4.81271 5.09978 0 1.03009.70924 2.97206 3.00583 2.97206 3.98527 0 5.69082-5.80902 5.69082-8.1225 0-2.43169-1.36782-4.30611-3.52932-4.30611-2.44857 0-3.1747 2.14461-3.1747 2.60055 0 .15198.10133.52349.57415.52349.59103 0 .84433-.54037.84433-.82745 0-.52349-.52348-.52349-.74301-.52349.69235-1.24961 1.97574-1.36782 2.43168-1.36782 1.48604 0 2.43169 1.18207 2.43169 3.07338 0 1.08075-.32085 2.33037-.48971 2.95517h-.0169zm-3.96838 5.53884c-1.58735 0-1.85753-1.24962-1.85753-1.95886 0-.74301.47282-2.48234.72612-3.10715.21953-.5066 1.18207-2.21216 2.93829-2.21216 1.53669 0 1.89131 1.33405 1.89131 2.24593 0 1.24962-1.09763 5.03224-3.69819 5.03224z"/><path d="m146.2616 195.69078c-.54037.10132-.74301.5066-.74301.82745 0 .40528.32084.54037.55726.54037.5066 0 .86122-.43905.86122-.895 0-.70924-.81056-1.03008-1.5198-1.03008-1.03009 0-1.60424 1.0132-1.75622 1.33405-.38839-1.26651-1.43537-1.33405-1.73933-1.33405-1.72244 0-2.63433 2.21215-2.63433 2.58366 0 .0675.0675.15198.18576.15198.13509 0 .16886-.10132.20264-.16887.57415-1.87442 1.70556-2.22904 2.19527-2.22904.7599 0 .91188.70924.91188 1.11452 0 .37151-.10132.7599-.30396 1.57047l-.57415 2.31347c-.2533 1.01321-.74301 1.94197-1.63801 1.94197-.0844 0-.5066 0-.86122-.21952.60792-.11822.74302-.62481.74302-.82745 0-.33774-.2533-.54038-.57415-.54038-.40528 0-.84434.35462-.84434.895 0 .70924.79368 1.03009 1.51981 1.03009.81056 0 1.38471-.6417 1.73933-1.33405.27018.99631 1.11452 1.33405 1.73933 1.33405 1.72244 0 2.63432-2.21216 2.63432-2.58367 0-.0844-.0676-.15198-.16887-.15198-.15198 0-.16886.0844-.21952.21953-.45594 1.48603-1.43537 2.17838-2.19527 2.17838-.59104 0-.91189-.43905-.91189-1.1314 0-.37151.0676-.6417.33774-1.75622l.59103-2.29659c.2533-1.0132.82745-1.75622 1.60424-1.75622.0338 0 .5066 0 .86122.21953z"/><text font-family="sans-serif" font-size="21.761768" letter-spacing="0" word-spacing="0" x="28.090124" y="151.64493"><tspan font-family="Arial" x="28.090124" y="151.64493">chain-rule</tspan></text><path d="m141.58801 100.37277c.11821-.2533.18575-.388391 1.24961-.388391v-.72613c-.60792.0338-.64169.0338-1.33405.0338-.45594 0-.48971 0-1.45225-.0338v.72613c.45594 0 .82745.0844.82745.202641 0 .0169 0 .0338-.0844.20264l-1.97575 4.33988-2.17838-4.745161h.92877v-.72613c-.3884.0338-1.57047.0338-2.02641.0338-.48971 0-1.46914 0-1.90819-.0338v.72613h1.06386l2.97206 6.450721c.15198.32084.18575.40528.57415.40528.27018 0 .40528-.0338.55726-.37151l2.7863-6.0961z"/><path d="m149.00831 110.85941c0-.0507 0-.0844-.28708-.3715-1.68867-1.70556-2.63432-4.49187-2.63432-7.93675 0-3.276021.79367-6.096103 2.75253-8.088733.16887-.15198.16887-.18576.16887-.23642 0-.10132-.0844-.13509-.15198-.13509-.21953 0-1.60424 1.21584-2.43169 2.87074-.86122 1.705562-1.24961 3.512433-1.24961 5.589503 0 1.50291.23641 3.51243 1.11452 5.31931.99632 2.0264 2.38102 3.12404 2.56678 3.12404.0675 0 .15198-.0338.15198-.1351z"/><path d="m164.73825 102.55116c0-1.28339-.16886-3.377341-1.11451-5.336203-.99632-2.0264-2.38102-3.12404-2.56679-3.12404-.0675 0-.15197.0338-.15197.13509 0 .0507 0 .0844.28707.37151 1.68867 1.70556 2.63433 4.491862 2.63433 7.936753 0 3.27602-.79368 6.0961-2.75254 8.08873-.16886.15198-.16886.18575-.16886.23641 0 .10133.0845.1351.15197.1351.21954 0 1.60424-1.21585 2.43169-2.87074.86123-1.72245 1.24961-3.54621 1.24961-5.57261z"/><g fill="none" stroke="#000" stroke-width=".8"><path d="m34.194923 52.835888h24.42211v23.646805h-24.42211z"/><path d="m163.86427 52.835888h18.84885v23.646809h-18.84885z"/><path d="m99.84057 52.883838h22.193121v23.646805h-22.193121z"/></g><path d="m115.1707 61.97292c.11821-.2533.18575-.38839 1.24961-.38839v-.72613c-.60792.0338-.64169.0338-1.33405.0338-.45594 0-.48971 0-1.45225-.0338v.72613c.45594 0 .82745.0844.82745.20264 0 .0169 0 .0338-.0844.20264l-1.97575 4.33988-2.17838-4.74516h.92877v-.72613c-.3884.0338-1.57047.0338-2.02641.0338-.48971 0-1.46914 0-1.90819-.0338v.72613h1.06386l2.97206 6.45072c.15198.32084.18575.40528.57415.40528.27018 0 .40528-.0338.55726-.37151l2.7863-6.0961z"/><path d="m171.23517 67.171742c.72613-.82744 1.31717-1.35093 2.1615-2.11083 1.0132-.878111 1.45226-1.300281 1.68867-1.553581 1.18207-1.16518 1.77311-2.14461 1.77311-2.2797 0-.1351-.1351-.1351-.16887-.1351-.11821 0-.15198.0675-.23641.18576-.42217.72612-.82745 1.08074-1.26651 1.08074-.35462 0-.54037-.15198-.86122-.55726-.35462-.42216-.64169-.70924-1.13141-.70924-1.23273 0-1.97574 1.53669-1.97574 1.89131 0 .0507.0169.15198.16887.15198.13509 0 .15198-.0675.20264-.18575.28707-.67547 1.09763-.79368 1.41848-.79368.35462 0 .69235.1182 1.04697.27019.6417.27019.91189.27019 1.08075.27019.11821 0 .18576 0 .27019-.0169-.55726.65858-1.46914 1.46914-2.22904 2.161501l-1.70556 1.57046c-1.03009 1.04697-1.6549 2.043289-1.6549 2.161499 0 .10132.0844.13509.18576.13509.10132 0 .1182-.0169.23641-.21953.27019-.42216.81056-1.046969 1.43537-1.046969.35462 0 .52349.118209.86122.540369.32085.37151.60792.72613 1.1483.72613 1.65489 0 2.60055-2.144609 2.60055-2.532999 0-.0675-.0169-.16887-.18575-.16887-.1351 0-.15198.0676-.20265.23641-.3715.99632-1.36782 1.401599-2.0264 1.401599-.35462 0-.69235-.11821-1.04698-.270189-.67546-.27019-.86122-.27019-1.08074-.27019-.16887 0-.35462 0-.5066.0675z"/><path d="m59.113666 64.26484 39.072142.09845" fill="none" marker-end="url(#a)" stroke="#000"/><path d="m122.10353 64.26484 39.07213.09845" fill="none" marker-end="url(#a)" stroke="#000"/><path d="m148.58632 176.69397c0-.15513-.12246-.31026-.31842-.31026-.24495 0-.45723.22862-.45723.4409 0 .15513.12248.31026.31842.31026.24495 0 .45723-.22861.45723-.4409zm-1.70642 5.50305c-.12248.49805-.52255 1.02875-1.0206 1.02875-.13063 0-.25311-.0326-.26944-.0408.25311-.12247.28576-.34291.28576-.4164 0-.19595-.14695-.30209-.31842-.30209-.23677 0-.45722.20411-.45722.47355 0 .31026.30209.51438.76748.51438.49806 0 1.39618-.31026 1.64112-1.29003l.73483-2.92298c.0244-.098.0408-.1633.0408-.28577 0-.44906-.35925-.76749-.8328-.76749-.86547 0-1.37168 1.14307-1.37168 1.24921 0 .0735.0571.10615.12247.10615.0898 0 .098-.0245.15513-.14697.24495-.56337.66135-.97977 1.06958-.97977.17147 0 .26943.1143.26943.38374 0 .11431-.0244.22861-.0489.34292l-.76749 3.05362z"/><path d="m121.44346 200.08683c0-.15513-.12246-.31026-.31842-.31026-.24495 0-.45723.22862-.45723.4409 0 .15513.12248.31026.31842.31026.24495 0 .45723-.22861.45723-.4409zm-1.70642 5.50305c-.12248.49805-.52255 1.02875-1.0206 1.02875-.13063 0-.25311-.0326-.26944-.0408.25311-.12247.28576-.34291.28576-.4164 0-.19595-.14695-.30209-.31842-.30209-.23677 0-.45722.20411-.45722.47355 0 .31026.30209.51438.76748.51438.49806 0 1.39618-.31026 1.64112-1.29003l.73483-2.92298c.0244-.098.0408-.1633.0408-.28577 0-.44906-.35925-.76749-.8328-.76749-.86547 0-1.37168 1.14307-1.37168 1.24921 0 .0735.0571.10615.12247.10615.0898 0 .098-.0245.15513-.14697.24495-.56337.66135-.97977 1.06958-.97977.17147 0 .26943.1143.26943.38374 0 .11431-.0244.22861-.0489.34292l-.76749 3.05362z"/><path d="m87.87203 201.33683c0-.15513-.12246-.31026-.31842-.31026-.24495 0-.45723.22862-.45723.4409 0 .15513.12248.31026.31842.31026.24495 0 .45723-.22861.45723-.4409zm-1.70642 5.50305c-.12248.49805-.52255 1.02875-1.0206 1.02875-.13063 0-.25311-.0326-.26944-.0408.25311-.12247.28576-.34291.28576-.4164 0-.19595-.14695-.30209-.31842-.30209-.23677 0-.45722.20411-.45722.47355 0 .31026.30209.51438.76748.51438.49806 0 1.39618-.31026 1.64112-1.29003l.73483-2.92298c.0244-.098.0408-.1633.0408-.28577 0-.44906-.35925-.76749-.8328-.76749-.86547 0-1.37168 1.14307-1.37168 1.24921 0 .0735.0571.10615.12247.10615.0898 0 .098-.0245.15513-.14697.24495-.56337.66135-.97977 1.06958-.97977.17147 0 .26943.1143.26943.38374 0 .11431-.0244.22861-.0489.34292l-.76749 3.05362z"/><path d="m165.95255 185.49529c.23642 0 .54038 0 .54038-.30396 0-.32085-.28708-.32085-.54038-.32085h-9.94627c-.23641 0-.54038 0-.54038.30396 0 .32085.28708.32085.54038.32085zm0 3.14093c.23642 0 .54038 0 .54038-.30396 0-.32085-.28708-.32085-.54038-.32085h-9.94627c-.23641 0-.54038 0-.54038.30396 0 .32085.28708.32085.54038.32085z"/><path d="m185.27657 179.80447c.0337-.0507.0844-.16887.0844-.23641 0-.11821-.0169-.1351-.40527-.1351h-11.65183c-.38839 0-.40527.0169-.40527.1351 0 .0676.0506.18575.0844.23641l5.69083 11.39852c.11825.21953.16886.32085.45594.32085.28707 0 .33773-.10132.45593-.32085l5.69083-11.39852zm-10.284.84434h9.2708l-4.62696 9.28768z"/><path d="m191.93556 189.98715c.21952.94566 1.03008 1.1483 1.43536 1.1483.54037 0 .94566-.35462 1.21585-.92877.28707-.60792.5066-1.60424.5066-1.6549 0-.0844-.0675-.15198-.16888-.15198-.15197 0-.16886.0844-.23641.33774-.30395 1.16518-.60791 2.06017-1.28339 2.06017-.5066 0-.5066-.55726-.5066-.77678 0-.3884.0506-.55727.21953-1.26651.11825-.45594.23641-.91188.33774-1.38471l.69235-2.75253c.11825-.42217.11825-.45594.11825-.5066 0-.2533-.20264-.42217-.45594-.42217-.48971 0-.60793.42217-.70925.84434-.16886.65858-1.08075 4.28922-1.19895 4.88025-.0169 0-.67548 1.38471-1.9082 1.38471-.87811 0-1.04698-.7599-1.04698-1.38471 0-.96254.47283-2.31347.91189-3.44488.20264-.54038.28708-.7599.28708-1.09764 0-.72613-.52349-1.35093-1.33405-1.35093-1.55358 0-2.17839 2.44857-2.17839 2.58366 0 .0675.0675.15198.18575.15198.15199 0 .16887-.0675.23641-.30396.40529-1.45226 1.06386-2.09395 1.70556-2.09395.16887 0 .43905.0169.43905.55726 0 .43905-.18575.92877-.43905 1.57046-.74301 2.00952-.82745 2.65122-.82745 3.15782 0 1.72244 1.30028 1.99263 1.99263 1.99263 1.08075 0 1.67179-.74302 2.00952-1.1483z"/><path d="m198.69447 190.15602c0-.48972-.40528-.82745-.81056-.82745-.48972 0-.82745.40528-.82745.81056 0 .48972.40528.82745.81056.82745.48972 0 .82745-.40528.82745-.81056z"/><path d="m211.4763 173.90299c-.10138-.94565-.69235-2.07706-2.21215-2.07706-2.38103 0-4.81272 2.4148-4.81272 5.09978 0 1.03009.70924 2.97206 3.00584 2.97206 3.98526 0 5.69081-5.80902 5.69081-8.1225 0-2.43169-1.36782-4.30611-3.52931-4.30611-2.44858 0-3.1747 2.14461-3.1747 2.60055 0 .15198.10125.52349.57414.52349.59103 0 .84433-.54037.84433-.82745 0-.52349-.52348-.52349-.74301-.52349.69235-1.24961 1.97575-1.36782 2.43169-1.36782 1.48603 0 2.43169 1.18207 2.43169 3.07338 0 1.08075-.32085 2.33036-.48973 2.95517h-.0169zm-3.96837 5.53884c-1.58735 0-1.85754-1.24961-1.85754-1.95886 0-.74301.47283-2.48234.72613-3.10715.21952-.5066 1.18206-2.21216 2.93829-2.21216 1.53669 0 1.89131 1.33405 1.89131 2.24593 0 1.24962-1.09764 5.03224-3.69819 5.03224z"/><path d="m221.81658 173.15998c.11825-.2533.18576-.3884 1.24961-.3884v-.72612c-.60791.0338-.64168.0338-1.33403.0338-.45595 0-.48973 0-1.45227-.0338v.72612c.45594 0 .82745.0844.82745.20264 0 .0169 0 .0338-.0844.20264l-1.97574 4.33989-2.17839-4.74517h.92877v-.72612c-.38839.0338-1.57047.0338-2.0264.0338-.48972 0-1.46914 0-1.90821-.0338v.72612h1.06387l2.97206 6.45072c.15198.32085.18575.40529.57415.40529.27019 0 .40528-.0338.55726-.37151l2.7863-6.0961z"/><path d="m201.86917 186.40773h23.819397v.67544h-23.819397z"/><path d="m209.53572 196.9107c-.10137-.94565-.69235-2.07706-2.21216-2.07706-2.38103 0-4.8127 2.4148-4.8127 5.09978 0 1.03009.70923 2.97206 3.00582 2.97206 3.98527 0 5.69083-5.80902 5.69083-8.1225 0-2.43169-1.36783-4.30611-3.52933-4.30611-2.44857 0-3.1747 2.14461-3.1747 2.60055 0 .15198.10138.52349.57415.52349.59104 0 .84434-.54037.84434-.82745 0-.52349-.52349-.52349-.74303-.52349.69237-1.24961 1.97575-1.36782 2.43169-1.36782 1.48604 0 2.43169 1.18207 2.43169 3.07338 0 1.08075-.32085 2.33037-.48971 2.95517h-.0169zm-3.96838 5.53884c-1.58735 0-1.85753-1.24962-1.85753-1.95886 0-.74301.47282-2.48234.72612-3.10715.21953-.5066 1.18208-2.21216 2.93829-2.21216 1.53669 0 1.89131 1.33405 1.89131 2.24593 0 1.24962-1.09764 5.03224-3.69819 5.03224z"/><path d="m220.84724 195.66109c-.54038.10132-.74302.5066-.74302.82745 0 .40528.32084.54037.55725.54037.50662 0 .86123-.43905.86123-.895 0-.70924-.81056-1.03008-1.5198-1.03008-1.03009 0-1.60424 1.0132-1.75621 1.33405-.3884-1.26651-1.43538-1.33405-1.73934-1.33405-1.72244 0-2.63434 2.21215-2.63434 2.58366 0 .0675.0675.15198.18575.15198.13511 0 .16889-.10132.20266-.16887.57415-1.87442 1.70555-2.22904 2.19527-2.22904.75991 0 .91188.70924.91188 1.11452 0 .37151-.10137.7599-.30396 1.57047l-.57415 2.31347c-.2533 1.01321-.74301 1.94197-1.63801 1.94197-.0844 0-.5066 0-.86122-.21952.60792-.11822.74302-.62481.74302-.82745 0-.33774-.2533-.54038-.57416-.54038-.40528 0-.84434.35462-.84434.895 0 .70924.79368 1.03009 1.51982 1.03009.81055 0 1.3847-.6417 1.73933-1.33405.27019.99631 1.11452 1.33405 1.73932 1.33405 1.72245 0 2.63433-2.21216 2.63433-2.58367 0-.0844-.0675-.15198-.16886-.15198-.15198 0-.16887.0844-.21953.21953-.45594 1.48603-1.43537 2.17838-2.19527 2.17838-.59104 0-.91188-.43905-.91188-1.1314 0-.37151.0675-.6417.33773-1.75622l.59103-2.29659c.2533-1.0132.82745-1.75622 1.60424-1.75622.0337 0 .5066 0 .86123.21953z"/><path d="m391.41193 64.706619h27.076941v77.988899h-27.076941z" fill="none" stroke="#000" stroke-width=".7"/><g transform="translate(206.91464 -33.22425)"><path d="m200.47772 184.22934c.0337-.0507.0844-.16887.0844-.23641 0-.11821-.0169-.1351-.40527-.1351h-11.65183c-.38838 0-.40527.0169-.40527.1351 0 .0675.0506.18575.0844.23641l5.69083 11.39852c.11825.21953.16886.32085.45594.32085.28707 0 .33773-.10132.45593-.32085l5.69083-11.39852zm-10.284.84434h9.2708l-4.62696 9.28768z"/><path d="m207.13671 194.41202c.21952.94566 1.03008 1.1483 1.43536 1.1483.54037 0 .94566-.35462 1.21585-.92877.28707-.60792.5066-1.60424.5066-1.6549 0-.0844-.0675-.15198-.16888-.15198-.15197 0-.16886.0844-.23641.33774-.30395 1.16518-.60791 2.06017-1.28339 2.06017-.5066 0-.5066-.55726-.5066-.77678 0-.3884.0506-.55727.21953-1.26651.11825-.45594.23641-.91188.33774-1.38471l.69235-2.75253c.11825-.42217.11825-.45594.11825-.5066 0-.2533-.20264-.42217-.45594-.42217-.48971 0-.60793.42217-.70925.84434-.16886.65858-1.08075 4.28922-1.19895 4.88025-.0169 0-.67548 1.38471-1.9082 1.38471-.87811 0-1.04698-.7599-1.04698-1.38471 0-.96254.47283-2.31347.91189-3.44488.20264-.54038.28708-.7599.28708-1.09764 0-.72613-.52349-1.35093-1.33405-1.35093-1.55358 0-2.17839 2.44857-2.17839 2.58366 0 .0675.0675.15198.18575.15198.15199 0 .16887-.0675.23641-.30396.40529-1.45226 1.06386-2.09395 1.70556-2.09395.16887 0 .43905.0169.43905.55726 0 .43905-.18575.92877-.43905 1.57046-.74301 2.00952-.82745 2.65122-.82745 3.15782 0 1.72244 1.30028 1.99263 1.99263 1.99263 1.08075 0 1.67179-.74302 2.00952-1.1483z"/></g><path d="m404.47491 95.123071c-.0735-.686044-.50229-1.506852-1.60487-1.506852-1.72736 0-3.49149 1.751873-3.49149 3.699756 0 .747303.51453 2.156151 2.18065 2.156151 2.89121 0 4.12854-4.214291 4.12854-5.89266 0-1.764127-.99232-3.123969-2.56043-3.123969-1.77637 0-2.30316 1.555858-2.30316 1.88663 0 .110258.0735.379778.41653.379778.42878 0 .61255-.392024.61255-.600293 0-.379778-.37978-.379778-.53905-.379778.50229-.906559 1.43335-.992317 1.76413-.992317 1.07807 0 1.76412.85756 1.76412 2.229656 0 .784056-.23277 1.690622-.35527 2.143898h-.0123zm-2.87896 4.018283c-1.15158 0-1.34759-.90656-1.34759-1.421102 0-.539034.34303-1.800872.52679-2.254155.15926-.367525.85755-1.604864 2.13165-1.604864 1.11482 0 1.37209.967818 1.37209 1.629363 0 .906566-.7963 3.650758-2.68294 3.650758z"/><path d="m407.46728 98.222541c.52679-.600293.95557-.980071 1.56811-1.531359.73505-.637045 1.05357-.943311 1.22509-1.127074.85756-.845315 1.28634-1.555865 1.28634-1.653869 0-.09801-.098-.09801-.12251-.09801-.0858 0-.11026.04897-.17151.134757-.30628.526788-.6003.784056-.91882.784056-.25726 0-.39203-.110258-.62479-.404278-.25727-.306273-.46553-.514535-.82081-.514535-.89431 0-1.43335 1.114828-1.43335 1.372096 0 .03678.0123.110257.12251.110257.098 0 .11026-.04904.14701-.134764.20826-.490028.79631-.575786 1.02907-.575786.25727 0 .50229.08575.75956.196015.46553.196009.66154.196009.78405.196009.0858 0 .13476 0 .19601-.01226-.40428.47779-1.06582 1.06583-1.61711 1.568112l-1.23734 1.139334c-.74729.75955-1.20058 1.482353-1.20058 1.568104 0 .07351.0612.09801.13476.09801.0735 0 .0858-.01226.17151-.159263.19601-.306273.58805-.759557 1.04132-.759557.25727 0 .37978.08577.6248.392032.23276.269521.44103.526788.83306.526788 1.20058 0 1.88663-1.555865 1.88663-1.837632 0-.04897-.0123-.122511-.13476-.122511-.098 0-.11026.04897-.14701.171517-.26952.722796-.99232 1.016816-1.4701 1.016816-.25728 0-.50229-.08576-.75956-.196008-.49003-.196016-.62479-.196016-.78405-.196016-.12251 0-.25727 0-.36753.04897z"/><path d="m397.47375 104.19492h15.995433v.490014h-15.995433z"/><path d="m403.03564 111.81456c-.0735-.68605-.50229-1.50685-1.60486-1.50685-1.72738 0-3.4915 1.75187-3.4915 3.69975 0 .74731.51454 2.15615 2.18065 2.15615 2.8912 0 4.12854-4.21429 4.12854-5.89266 0-1.76412-.99232-3.12397-2.56043-3.12397-1.77637 0-2.30316 1.55586-2.30316 1.88664 0 .11025.0735.37977.41653.37977.42878 0 .61254-.39203.61254-.60029 0-.37978-.37977-.37978-.53903-.37978.50228-.90656 1.43334-.99232 1.76412-.99232 1.07807 0 1.76412.85757 1.76412 2.22966 0 .78406-.23276 1.69062-.35527 2.1439h-.0123zm-2.87896 4.01828c-1.15158 0-1.34759-.90657-1.34759-1.4211 0-.53903.34302-1.80087.52679-2.25416.15926-.36752.85756-1.60486 2.13165-1.60486 1.11483 0 1.37209.96782 1.37209 1.62936 0 .90657-.79631 3.65076-2.68294 3.65076z"/><path d="m410.07162 111.32452c0-.7718-.39203-.82081-.49004-.82081-.29402 0-.56354.29403-.56354.53905 0 .14701.0858.23276.13476.28176.12251.11026.44103.44104.44103 1.07808 0 .51453-.73505 3.38124-2.20515 3.38124-.74731 0-.89432-.6248-.89432-1.07808 0-.61254.28177-1.4701.61254-2.35216.19602-.50229.24502-.6248.24502-.86981 0-.51454-.36752-.98008-.96781-.98008-1.12708 0-1.58037 1.77639-1.58037 1.87439 0 .049.049.11026.13477.11026.11025 0 .12251-.049.17151-.22052.29401-1.05357.7718-1.5191 1.23733-1.5191.11026 0 .31852 0 .31852.40427 0 .31852-.13475.6738-.31852 1.13933-.58804 1.56811-.58804 1.94789-.58804 2.24191 0 .26952.0368.7718.41653 1.11483.44103.37978 1.05357.37978 1.16383.37978 2.03364 0 2.73195-4.00603 2.73195-4.70434z"/><path d="m350.97494 96.609167c-.0688-.64201-.47005-1.41012-1.50185-1.41012-1.61649 0-3.26736 1.63941-3.26736 3.46226 0 .69933.4815 2.017743 2.04066 2.017743 2.70561 0 3.86352-3.943773 3.86352-5.514403 0-1.65088-.92861-2.923432-2.39606-2.923432-1.66235 0-2.15532 1.455982-2.15532 1.765522 0 .10318.0688.3554.38979.3554.40125 0 .57322-.36686.57322-.56176 0-.3554-.3554-.3554-.50443-.3554.47004-.848363 1.34134-.928616 1.65088-.928616 1.00887 0 1.65088.802516 1.65088 2.086526 0 .73373-.21783 1.5821-.33247 2.00628h-.0115zm-2.69415 3.760343c-1.07766 0-1.26109-.848363-1.26109-1.329883 0-.50443.321-1.68527.49297-2.10945.14904-.34394.80251-1.50185 1.99482-1.50185 1.04326 0 1.28401.90569 1.28401 1.52477 0 .84837-.74519 3.416413-2.51071 3.416413z"/><path d="m357.55935 96.150597c0-.72227-.36686-.76812-.45858-.76812-.27514 0-.52736.27515-.52736.50443 0 .13757.0802.21783.1261.26369.11465.10318.41272.41272.41272 1.00887 0 .48151-.68786 3.164183-2.06359 3.164183-.69933 0-.83691-.584693-.83691-1.008863 0-.57323.26368-1.37574.57322-2.20118.18343-.47005.22929-.58469.22929-.81398 0-.4815-.34393-.91715-.90569-.91715-1.05473 0-1.47891 1.66234-1.47891 1.75406 0 .0458.0458.10318.12611.10318.10318 0 .11464-.0458.1605-.20636.27514-.98594.72226-1.42159 1.15791-1.42159.10318 0 .29807 0 .29807.37832 0 .29808-.1261.63055-.29807 1.0662-.55029 1.46744-.55029 1.82284-.55029 2.09799 0 .25222.0344.72226.38978 1.043263.41273.3554.98595.3554 1.08913.3554 1.90309 0 2.55657-3.748873 2.55657-4.402343z"/><path d="m345.16919 105.09867h16.17108v.458559h-16.17108z"/><path d="m350.374 112.2292c-.0688-.64201-.47003-1.41013-1.50183-1.41013-1.61649 0-3.26737 1.63942-3.26737 3.46226 0 .69934.48151 2.01775 2.04067 2.01775 2.70561 0 3.86352-3.94377 3.86352-5.5144 0-1.65088-.92862-2.92343-2.39607-2.92343-1.66234 0-2.15532 1.45598-2.15532 1.76552 0 .10318.0688.3554.3898.3554.40125 0 .57322-.36687.57322-.56176 0-.3554-.3554-.3554-.50444-.3554.47004-.84837 1.34134-.92862 1.65088-.92862 1.00887 0 1.65088.80251 1.65088 2.08653 0 .73373-.21782 1.58209-.33247 2.00628h-.0115zm-2.69414 3.76034c-1.07765 0-1.26109-.84837-1.26109-1.32988 0-.50443.32101-1.68527.49297-2.10946.14904-.34393.80252-1.50184 1.99482-1.50184 1.04327 0 1.28402.90569 1.28402 1.52477 0 .84837-.74519 3.41641-2.51072 3.41641z"/><path d="m358.04617 111.38083c-.36686.0688-.50443.34393-.50443.56175 0 .27516.21782.36687.37832.36687.34393 0 .58469-.29808.58469-.60762 0-.4815-.5503-.69933-1.0318-.69933-.69933 0-1.08913.68787-1.19231.90569-.26368-.85983-.97447-.90569-1.18083-.90569-1.16937 0-1.78845 1.50184-1.78845 1.75406 0 .0458.0459.10318.1261.10318.0917 0 .11465-.0688.13758-.11464.38979-1.27255 1.15791-1.51331 1.49037-1.51331.51591 0 .61909.48151.61909.75665 0 .25222-.0688.5159-.20636 1.0662l-.38979 1.57063c-.17197.68786-.50444 1.31841-1.11205 1.31841-.0573 0-.34394 0-.58469-.14904.41272-.0803.50443-.42418.50443-.56175 0-.2293-.17196-.36687-.38979-.36687-.27515 0-.57322.24075-.57322.60762 0 .4815.53883.69933 1.0318.69933.55029 0 .94008-.43565 1.18084-.90569.18343.6764.75665.90569 1.18083.90569 1.16938 0 1.78846-1.50184 1.78846-1.75406 0-.0573-.0458-.10318-.11465-.10318-.10318 0-.11464.0573-.14904.14904-.30953 1.00887-.97447 1.47891-1.49037 1.47891-.40125 0-.61908-.29808-.61908-.76812 0-.25221.0458-.43565.22928-1.1923l.40126-1.55916c.17197-.68788.56176-1.19231 1.08912-1.19231.023 0 .34394 0 .58469.14904z"/><path d="m351.57615 154.74647c-.10137-.94565-.69235-2.07706-2.21215-2.07706-2.38102 0-4.81271 2.4148-4.81271 5.09978 0 1.03009.70924 2.97206 3.00584 2.97206 3.98526 0 5.69081-5.80902 5.69081-8.1225 0-2.43169-1.36782-4.30611-3.52931-4.30611-2.44858 0-3.1747 2.14461-3.1747 2.60055 0 .15198.10125.52349.57414.52349.59103 0 .84433-.54037.84433-.82745 0-.52349-.52348-.52349-.74301-.52349.69235-1.24961 1.97575-1.36782 2.43169-1.36782 1.48602 0 2.43169 1.18207 2.43169 3.07338 0 1.08075-.32085 2.33037-.48973 2.95517h-.0169zm-3.96836 5.53884c-1.58735 0-1.85754-1.24961-1.85754-1.95886 0-.74301.47283-2.48234.72613-3.10715.21952-.5066 1.18206-2.21216 2.93829-2.21216 1.53668 0 1.89131 1.33405 1.89131 2.24593 0 1.24962-1.09764 5.03224-3.69819 5.03224z"/><path d="m361.91643 154.00346c.11825-.2533.18576-.38839 1.24961-.38839v-.72613c-.60791.0338-.64169.0338-1.33404.0338-.45595 0-.48972 0-1.45226-.0338v.72613c.45594 0 .82745.0844.82745.20264 0 .0169 0 .0338-.0844.20264l-1.97574 4.33988-2.17839-4.74516h.92876v-.72613c-.38838.0338-1.57046.0338-2.0264.0338-.48971 0-1.46913 0-1.9082-.0338v.72613h1.06387l2.97206 6.45071c.15197.32085.18575.40529.57415.40529.27019 0 .40527-.0338.55726-.37151l2.7863-6.0961z"/><path d="m341.96906 167.25119h23.819395v.67544h-23.819395z"/><path d="m349.63558 177.75418c-.10138-.94565-.69235-2.07706-2.21216-2.07706-2.38103 0-4.8127 2.4148-4.8127 5.09978 0 1.03009.70923 2.97206 3.00582 2.97206 3.98526 0 5.69083-5.80902 5.69083-8.1225 0-2.43169-1.36783-4.30611-3.52933-4.30611-2.44857 0-3.1747 2.14461-3.1747 2.60055 0 .15198.10138.52349.57415.52349.59104 0 .84434-.54038.84434-.82745 0-.52349-.52349-.52349-.74303-.52349.69237-1.24961 1.97575-1.36782 2.43169-1.36782 1.48604 0 2.43169 1.18207 2.43169 3.07338 0 1.08075-.32085 2.33036-.48971 2.95517h-.0169zm-3.96838 5.53884c-1.58735 0-1.85753-1.24962-1.85753-1.95886 0-.74301.47282-2.48234.72612-3.10715.21953-.5066 1.18208-2.21216 2.93829-2.21216 1.53669 0 1.89131 1.33405 1.89131 2.24593 0 1.24962-1.09764 5.03224-3.69819 5.03224z"/><path d="m360.33554 176.50457c-.54037.10132-.74301.5066-.74301.82744 0 .40529.32084.54038.55725.54038.50661 0 .86123-.43906.86123-.895 0-.70924-.81057-1.03009-1.5198-1.03009-1.03009 0-1.60424 1.01321-1.75622 1.33405-.3884-1.2665-1.43537-1.33405-1.73933-1.33405-1.72244 0-2.63433 2.21216-2.63433 2.58367 0 .0675.0675.15198.18575.15198.1351 0 .16888-.10132.20265-.16887.57415-1.87442 1.70555-2.22904 2.19526-2.22904.75992 0 .91189.70924.91189 1.11452 0 .37151-.10137.7599-.30396 1.57046l-.57415 2.31348c-.2533 1.0132-.74301 1.94197-1.63801 1.94197-.0844 0-.5066 0-.86122-.21952.60792-.11822.74302-.62481.74302-.82745 0-.33774-.2533-.54038-.57415-.54038-.40528 0-.84434.35462-.84434.895 0 .70924.79367 1.03009 1.51981 1.03009.81055 0 1.3847-.6417 1.73933-1.33405.27018.99631 1.11452 1.33405 1.73932 1.33405 1.72245 0 2.63433-2.21216 2.63433-2.58367 0-.0844-.0675-.15198-.16887-.15198-.15197 0-.16886.0844-.21952.21953-.45594 1.48603-1.43538 2.17838-2.19528 2.17838-.59103 0-.91187-.43905-.91187-1.13141 0-.3715.0675-.64169.33772-1.75621l.59104-2.29659c.2533-1.01321.82745-1.75622 1.60424-1.75622.0337 0 .5066 0 .86122.21953z"/><path d="m340.03885 64.706619h27.076941v77.988899h-27.076941z" fill="none" stroke="#000" stroke-width=".7"/><path d="m359.20759 98.329061c0-.11219-.0886-.22438-.23028-.22438-.17715 0-.33067.165338-.33067.318858 0 .11219.0886.22438.23028.22438.17715 0 .33067-.16533.33067-.318858zm-1.23408 3.979809c-.0886.36019-.37791.74399-.7381.74399-.0945 0-.18305-.0236-.19486-.0295.18305-.0886.20666-.24799.20666-.30114 0-.14171-.10627-.21847-.23028-.21847-.17123 0-.33066.14761-.33066.34247 0 .22438.21847.372.55504.372.3602 0 1.00972-.22438 1.18686-.93295l.53143-2.1139c.0176-.0709.0295-.1181.0295-.206667 0-.32476-.2598-.555049-.60228-.555049-.6259 0-.99199.826666-.99199.903426 0 .0532.0413.0768.0886.0768.0649 0 .0709-.0177.11219-.10629.17714-.407424.47828-.708565.77352-.708565.124 0 .19485.08266.19485.277521 0 .08267-.0177.165334-.0354.248004l-.55505 2.20837z"/><path d="m412.1195 113.36854c0-.11219-.0886-.22438-.23028-.22438-.17715 0-.33067.16533-.33067.31885 0 .11219.0886.22438.23028.22438.17715 0 .33067-.16533.33067-.31885zm-1.23408 3.9798c-.0886.36019-.37791.74399-.7381.74399-.0945 0-.18305-.0236-.19486-.0295.18305-.0886.20666-.24799.20666-.30114 0-.14171-.10627-.21847-.23028-.21847-.17123 0-.33066.14761-.33066.34247 0 .22438.21847.372.55504.372.3602 0 1.00972-.22438 1.18686-.93295l.53143-2.11389c.0176-.0709.0295-.1181.0295-.20667 0-.32476-.2598-.55505-.60228-.55505-.6259 0-.99199.82667-.99199.90343 0 .0532.0413.0768.0886.0768.0649 0 .0709-.0177.11219-.10629.17714-.40743.47828-.70857.77352-.70857.124 0 .19485.0827.19485.27752 0 .0827-.0177.16533-.0354.248l-.55505 2.20837z"/><path d="m303.88024 99.191293c0-.894866-.45453-.951673-.56817-.951673-.34089 0-.65338.340901-.65338.624971 0 .170444.0994.269883.15623.326702.14205.127836.51134.511345.51134 1.249957 0 .59657-.85223 3.9203-2.55671 3.9203-.86644 0-1.03689-.72442-1.03689-1.24994 0-.71022.32668-1.70449.71019-2.72718.22727-.582377.28408-.724412.28408-1.008494 0-.596561-.42612-1.136316-1.12212-1.136316-1.30676 0-1.83231 2.05958-1.83231 2.17322 0 .0567.0568.12783.15625.12783.12783 0 .14203-.0567.19885-.25567.34089-1.221544.89485-1.761298 1.43461-1.761298.12783 0 .3693 0 .3693.468725 0 .369311-.15623.781229-.3693 1.320983-.68179 1.81811-.68179 2.25843-.68179 2.59933 0 .3125.0426.89486.48292 1.29256.51136.44033 1.22156.44033 1.3494.44033 2.35786 0 3.1675-4.64471 3.1675-5.454337z"/><path d="m288.03885 64.706619h27.076941v77.988899h-27.076941z" fill="none" stroke="#000" stroke-width=".7"/><path d="m305.92235 101.89033c0-.139-.10978-.278-.28532-.278-.21948 0-.40969.20485-.40969.39506 0 .13899.10978.278.28531.278.21949 0 .4097-.20484.4097-.39506zm-1.52899 4.93084c-.10977.44626-.46821.92178-.91447.92178-.11708 0-.22679-.0292-.24143-.0365.22679-.10978.25604-.30726.25604-.37311 0-.17557-.13166-.27068-.28531-.27068-.21215 0-.40967.18289-.40967.42431 0 .278.27068.4609.68768.4609.44627 0 1.251-.278 1.47047-1.15589l.65842-2.61905c.0218-.0878.0365-.14631.0365-.25605 0-.40236-.32187-.68768-.7462-.68768-.77547 0-1.22904 1.02421-1.22904 1.11931 0 .0658.0512.0951.10977.0951.0804 0 .0878-.022.139-.13169.21947-.50479.59258-.87789.95836-.87789.15364 0 .24142.10241.24142.34383 0 .10243-.022.20484-.0439.30726l-.68769 2.73611z"/><path d="m306.51659 154.51563c.11821-.2533.18575-.38839 1.24961-.38839v-.72613c-.60792.0338-.64169.0338-1.33405.0338-.45594 0-.48971 0-1.45225-.0338v.72613c.45594 0 .82745.0844.82745.20264 0 .0169 0 .0338-.0844.20264l-1.97575 4.33988-2.17838-4.74516h.92877v-.72613c-.3884.0338-1.57047.0338-2.02641.0338-.48971 0-1.46914 0-1.90819-.0338v.72613h1.06386l2.97206 6.45072c.15198.32084.18575.40528.57415.40528.27018 0 .40528-.0338.55726-.37151l2.7863-6.0961z"/><path d="m48.342871 199.45324c0-.24767-.18013-.42779-.43906-.42779-.2927 0-.61918.27018-.61918.60792 0 .24767.18013.42779.43906.42779.2927 0 .61918-.27018.61918-.60792zm-1.64364 4.13162-.60793 1.55357c-.0563.16887-.11257.30396-.11257.49535 0 .55163.4278.95691 1.02446.95691 1.09201 0 1.55358-1.57609 1.55358-1.72245 0-.11257-.0901-.14635-.16887-.14635-.13509 0-.15761.0788-.19138.19139-.25893.90062-.7205 1.36219-1.17081 1.36219-.1351 0-.27019-.0563-.27019-.36025 0-.27019.0788-.47283.22515-.82182.11258-.30396.22516-.60792.349-.91188l.34899-.91188c.10132-.25893.23641-.60792.23641-.79931 0-.56289-.45031-.95691-1.02446-.95691-1.09201 0-1.56483 1.57609-1.56483 1.72244 0 .10133.0788.14636.16886.14636.14636 0 .15761-.0676.19139-.18013.31521-1.06949.83307-1.37345 1.17081-1.37345.15761 0 .27019.0563.27019.37151 0 .11257-.0112.27018-.12384.60792z"/><path d="m150.41384 199.45324c0-.24767-.18012-.42779-.43906-.42779-.2927 0-.61918.27018-.61918.60792 0 .24767.18013.42779.43905.42779.2927 0 .61919-.27018.61919-.60792zm-1.64364 4.13162-.60793 1.55357c-.0563.16887-.11257.30396-.11257.49535 0 .55163.4278.95691 1.02446.95691 1.09201 0 1.55357-1.57609 1.55357-1.72245 0-.11257-.0901-.14635-.16886-.14635-.13509 0-.15762.0788-.19139.19139-.25893.90062-.72049 1.36219-1.1708 1.36219-.1351 0-.27019-.0563-.27019-.36025 0-.27019.0788-.47283.22515-.82182.11258-.30396.22516-.60792.349-.91188l.34899-.91188c.10125-.25893.23641-.60792.23641-.79931 0-.56289-.45031-.95691-1.02446-.95691-1.09201 0-1.56483 1.57609-1.56483 1.72244 0 .10133.0788.14636.16886.14636.14636 0 .15761-.0676.19139-.18013.31522-1.06949.83307-1.37345 1.17081-1.37345.15761 0 .27019.0563.27019.37151 0 .11257-.0112.27018-.12384.60792z"/><path d="m225.0658 199.45324c0-.24767-.18012-.42779-.43906-.42779-.2927 0-.61918.27018-.61918.60792 0 .24767.18013.42779.43905.42779.2927 0 .61919-.27018.61919-.60792zm-1.64365 4.13162-.60791 1.55357c-.0563.16887-.11263.30396-.11263.49535 0 .55163.42779.95691 1.02445.95691 1.09202 0 1.55358-1.57609 1.55358-1.72245 0-.11257-.09-.14635-.16886-.14635-.13509 0-.15762.0788-.19139.19139-.25893.90062-.72049 1.36219-1.1708 1.36219-.1351 0-.27019-.0563-.27019-.36025 0-.27019.0787-.47283.22515-.82182.11263-.30396.22516-.60792.34899-.91188l.349-.91188c.10137-.25893.23641-.60792.23641-.79931 0-.56289-.45031-.95691-1.02446-.95691-1.092 0-1.56484 1.57609-1.56484 1.72244 0 .10133.0789.14636.16888.14636.14635 0 .1576-.0676.19137-.18013.31523-1.06949.83308-1.37345 1.17081-1.37345.15762 0 .27019.0563.27019.37151 0 .11257-.0113.27018-.12387.60792l-.30397.77679z"/><path d="m47.409287 64.52877 1.95885-2.24594c.18576-.21952.33774-.35462 1.739331-.35462v-.72613c-.945651.0338-.979431.0338-1.553571.0338-.48972 0-1.21585 0-1.68867-.0338v.72613c.32084 0 .67546.0844.67546.20264 0 .0338-.0844.15198-.1182.18576l-1.46915 1.65489-1.67178-2.04329h.70924v-.72613c-.38839.0338-1.53669.0338-1.99263.0338-.5066 0-1.41848 0-1.89131-.0338v.72613h1.19896l2.63432 3.20848-2.19527 2.48234c-.20264.23642-.32085.35462-1.72244.35462v.72613c1.0132-.0338 1.04697-.0338 1.57046-.0338.48972 0 1.19896 0 1.67178.0338v-.72613c-.32084 0-.67546-.0844-.67546-.20264 0-.0169 0-.0338.1182-.16886l1.68867-1.9082 1.87443 2.2797h-.70924v.72613c.40528-.0338 1.53668-.0338 2.00951-.0338.5066 0 1.401601 0 1.874431.0338v-.72613h-1.182071l-2.85386-3.44488z"/><path d="m155.30605 102.30298 1.95885-2.24595c.18576-.219518.33774-.354618 1.73933-.354618v-.72613c-.94565.0338-.97943.0338-1.55357.0338-.48972 0-1.21585 0-1.68867-.0338v.72613c.32084 0 .67546.0844.67546.20264 0 .0338-.0844.151978-.1182.185758l-1.46915 1.6549-1.67178-2.043298h.70924v-.72613c-.38839.0338-1.53669.0338-1.99263.0338-.5066 0-1.41848 0-1.89131-.0338v.72613h1.19896l2.63432 3.208488-2.19527 2.48234c-.20264.23642-.32085.35462-1.72244.35462v.72613c1.0132-.0338 1.04697-.0338 1.57046-.0338.48972 0 1.19896 0 1.67178.0338v-.72613c-.32084 0-.67546-.0844-.67546-.20264 0-.0169 0-.0338.1182-.16886l1.68867-1.9082 1.87443 2.2797h-.70924v.72613c.40528-.0338 1.53668-.0338 2.00951-.0338.5066 0 1.4016 0 1.87443.0338v-.72613h-1.18207l-2.85386-3.44488z"/><path d="m364.32849 179.45324c0-.24767-.18012-.42779-.43906-.42779-.2927 0-.61918.27018-.61918.60792 0 .24767.18013.42779.43905.42779.2927 0 .61919-.27018.61919-.60792zm-1.64365 4.13162-.60791 1.55357c-.0563.16887-.11263.30396-.11263.49535 0 .55163.42779.95691 1.02445.95691 1.09202 0 1.55358-1.57609 1.55358-1.72245 0-.11257-.09-.14635-.16886-.14635-.13509 0-.15762.0788-.19139.19139-.25893.90062-.72049 1.36219-1.1708 1.36219-.1351 0-.27019-.0563-.27019-.36025 0-.27019.0787-.47283.22515-.82182.11263-.30396.22516-.60792.34899-.91188l.349-.91188c.10137-.25893.23641-.60792.23641-.79931 0-.56289-.45031-.95691-1.02446-.95691-1.092 0-1.56484 1.57609-1.56484 1.72244 0 .10133.0789.14636.16888.14636.14635 0 .1576-.0676.19137-.18013.31523-1.06949.83308-1.37345 1.17081-1.37345.15762 0 .27019.0563.27019.37151 0 .11257-.0113.27018-.12387.60792l-.30397.77679z"/><path d="m360.12514 114.54387c0-.14805-.10762-.25573-.26248-.25573-.17497 0-.37013.16151-.37013.36342 0 .14805.10773.25573.26245.25573.17498 0 .37016-.16152.37016-.36342zm-.98258 2.46987-.36341.92871c-.0337.10098-.0673.1817-.0673.29612 0 .32976.25573.57204.61241.57204.65281 0 .92872-.94219.92872-1.02968 0-.0673-.0538-.0875-.10097-.0875-.0807 0-.0942.0471-.11441.11441-.15479.53839-.43071.81431-.69991.81431-.0807 0-.16152-.0337-.16152-.21536 0-.16152.0471-.28266.13461-.49128.0673-.1817.13459-.36341.20862-.54512l.20863-.54512c.0606-.15478.14132-.3634.14132-.47782 0-.33649-.2692-.57204-.61242-.57204-.65279 0-.93545.94219-.93545 1.02968 0 .0606.0472.0875.10098.0875.0875 0 .0942-.0404.11439-.10773.18845-.63933.49802-.82104.69991-.82104.0942 0 .16152.0337.16152.22209 0 .0673-.007.1615-.0741.3634l-.18171.46437z"/></g></svg>