<svg height="50mm" viewBox="90 0 250 143" width="120mm" xmlns="http://www.w3.org/2000/svg" xmlns:xlink="http://www.w3.org/1999/xlink"><marker id="a" orient="auto" overflow="visible" refX="0" refY="0"><path d="m0 0 5-5-17.5 5 17.5 5z" fill-rule="evenodd" stroke="#000" stroke-width="1pt" transform="matrix(-.8 0 0 -.8 -10 0)"/></marker><marker id="b" orient="auto" overflow="visible" refX="0" refY="0"><path d="m0 0 5-5-17.5 5 17.5 5z" fill-rule="evenodd" stroke="#000" stroke-width="1pt" transform="matrix(-.8 0 0 -.8 -10 0)"/></marker><marker id="c" orient="auto" overflow="visible" refX="0" refY="0"><path d="m0 0 5-5-17.5 5 17.5 5z" fill-rule="evenodd" stroke="#000" stroke-width="1pt" transform="matrix(-.8 0 0 -.8 -10 0)"/></marker><g transform="translate(-56.539589 -79.178362)"><g fill="none" stroke="#000"><path d="m169.62504 162.2158 5.01504-.0692 47.59421.19685" marker-end="url(#b)" opacity=".5" stroke-width=".784758"/><path d="m282.75166 119.29079-8.90189 11.30442" marker-end="url(#a)" opacity=".5" stroke-width=".531942"/><path d="m287.79467 162.88565 47.79874.32471" marker-end="url(#c)" opacity=".5" stroke-width=".72065"/><circle cx="256.13687" cy="162.24854" r="31.909409" stroke-width=".900563"/><path d="m272.69977 92.220741h23.522575v23.522575h-23.522575z"/></g><path d="m364.16866 4.0598181c.0135-.054037.0405-.1350936.0405-.2026404 0-.1350936-.13509-.1350936-.16211-.1350936-.0135 0-.49985.040528-.74301.067547-.22966.013509-.4323.040528-.67547.054037-.32423.027019-.41879.040528-.41879.2836966 0 .1350936.13509.1350936.27018.1350936.68898 0 .68898.1215842.68898.2566778 0 .094565-.10807.486337-.16211.7295054l-.32422 1.2968986c-.1351.5403744-.90513 3.6069989-.95917 3.8501679-.0675.337734-.0675.567393-.0675.743014 0 1.377956.77004 2.093952 1.64815 2.093952 1.56708 0 3.1882-2.012895 3.1882-3.9717525 0-1.2428612-.70248-2.1209696-1.71568-2.1209696-.70249 0-1.33743.5809025-1.59411.8510897l.98618-3.9312237zm-.85109 8.9026679c-.43229 0-.90512-.324224-.90512-1.377954 0-.445809.0405-.702487.28369-1.6481423.0405-.1756217.25668-1.0402208.31072-1.2158424.027-.1080749.82407-1.310408 1.74271-1.310408.59441 0 .8646.5944119.8646 1.2968986 0 .6484493-.37827 2.1750071-.716 2.8774941-.33773.729505-.95916 1.377954-1.5806 1.377954z" transform="matrix(1.25 0 0 1.2500001 -171.24314 93.250133)"/><path d="m159.40185 161.23325 3.08155-3.53315c.29221-.34535.5313-.55786 2.73619-.55786v-1.1423c-1.48764.0532-1.54077.0532-2.44398.0532-.77039 0-1.91268 0-2.6565-.0532v1.1423c.50473 0 1.0626.13277 1.0626.31878 0 .0532-.13282.23908-.18596.29221l-2.31115 2.60337-2.62994-3.21436h1.11573v-1.1423c-.611.0532-2.41742.0532-3.13468.0532-.79695 0-2.23146 0-2.97528-.0532v1.1423h1.88612l4.14414 5.04735-3.45345 3.90505c-.31878.37192-.50474.55788-2.70964.55788v1.14229c1.59391-.0532 1.64704-.0532 2.47055-.0532.77039 0 1.88612 0 2.62994.0532v-1.14229c-.50474 0-1.0626-.13277-1.0626-.31879 0-.0266 0-.0532.18595-.26564l2.65651-3.00186 2.94872 3.58629h-1.11574v1.14229c.63757-.0532 2.41742-.0532 3.16125-.0532.79695 0 2.20489 0 2.94871.0532v-1.14229h-1.85955z"/><path d="m266.77147 172.28284 2.04329-5.40374h-.42217c-.65858 1.75621-2.44857 2.90451-4.39054 3.41111-.35462.0844-2.00952.52349-5.25176.52349h-10.18268l8.59533-10.08136c.1182-.13509.15198-.18575.15198-.27019 0-.0338 0-.0844-.11821-.2533l-7.8692-10.75683h9.25391c2.26282 0 3.79951.23642 3.95149.27019.91188.13509 2.38102.42217 3.71507 1.2665.42217.27019 1.57047 1.03009 2.14462 2.39791h.42216l-2.04329-4.74516h-19.96008c-.38839 0-.40528.0169-.45594.11821-.0169.0507-.0169.37151-.0169.55726l8.93307 12.22597-8.74732 10.25023c-.16886.20264-.16886.28707-.16886.30396 0 .18575.15198.18575.45594.18575h19.96008z"/><g transform="matrix(1.7793621 0 0 1.779362 301.73473 143.66709)"><path d="m27.551395 8.5262952c.270188 0 .378262 0 .378262-.2566778 0-.1350936-.108074-.1350936-.351243-.1350936h-1.094258c.256678-1.3914641.445809-2.3506287.553884-2.7829282.08106-.3242246.364752-.6349399.715996-.6349399.283696 0 .567393.1215842.702486.2431685-.526865.054037-.688977.4458089-.688977.675468 0 .2701872.20264.4322995.459318.4322995.270188 0 .675468-.2296591.675468-.7430148 0-.5673931-.567393-.8781084-1.161805-.8781084-.580902 0-1.148295.4322995-1.418482.9591646-.243169.4728276-.378263.9591645-.688978 2.7288907h-.905127c-.256678 0-.391771 0-.391771.2431685 0 .1486029.08106.1486029.351243.1486029h.864599c-.243168 1.2563705-.797052 4.3094858-1.107767 5.7549878-.22966 1.175314-.4323 2.161497-1.107768 2.161497-.04053 0-.4323 0-.675468-.256678.688977-.05404.688977-.648449.688977-.661958 0-.270188-.20264-.4323-.459318-.4323-.270187 0-.675468.229659-.675468.743015 0 .580902.594412.878108 1.121277.878108 1.377955 0 1.945348-2.472213 2.093951-3.147681.243168-1.04022.905127-4.63371.972674-5.0389908z"/><path d="m33.879179 17.239832c0-.04053 0-.06755-.229659-.297206-1.350936-1.364445-2.10746-3.593489-2.10746-6.349399 0-2.6208155.63494-4.8768787 2.202026-6.4709831.135093-.1215843.135093-.148603.135093-.1891311 0-.081056-.06755-.1080749-.121584-.1080749-.175622 0-1.283389.972674-1.945348 2.2965912-.688977 1.3644454-.999693 2.8099469-.999693 4.4715979 0 1.202333.189132 2.809947.891618 4.255449.797052 1.621123 1.90482 2.499231 2.053423 2.499231.05404 0 .121584-.02702.121584-.108075z"/><path d="m39.185436 10.620246 1.567086-1.7967449c.148603-.1756216.270187-.2836965 1.391464-.2836965v-.5809025c-.756524.027019-.783543.027019-1.242861.027019-.391772 0-.972674 0-1.350936-.027019v.5809025c.256677 0 .540374.067547.540374.1621123 0 .027019-.06755.1215842-.09457.148603l-1.175314 1.3239171-1.337427-1.6346324h.567394v-.5809025c-.310716.027019-1.229352.027019-1.594105.027019-.405281 0-1.134786 0-1.513048-.027019v.5809025h.959164l2.107461 2.5667784-1.756217 1.985876c-.162113.189131-.256678.283696-1.377955.283696v.580903c.810562-.02702.83758-.02702 1.25637-.02702.391772 0 .959165 0 1.337427.02702v-.580903c-.256678 0-.540374-.06755-.540374-.162112 0-.01351 0-.02702.09457-.135093l1.350936-1.526558 1.499539 1.823763h-.567393v.580903c.324225-.02702 1.229352-.02702 1.607614-.02702.405281 0 1.121277 0 1.499539.02702v-.580903h-.945655l-2.283082-2.755909z"/><path d="m46.463604 10.593227c0-1.0267111-.135094-2.7018717-.891618-4.2689575-.797052-1.6211232-1.90482-2.4992316-2.053423-2.4992316-.05404 0-.121584.027019-.121584.1080749 0 .040528 0 .067547.229659.2972059 1.350936 1.3644454 2.10746 3.5934898 2.10746 6.3493993 0 2.620816-.63494 4.876879-2.202026 6.470983-.135093.121585-.135093.148603-.135093.189131 0 .08106.06755.108075.121584.108075.175622 0 1.283389-.972674 1.945348-2.296591.688977-1.377955.999693-2.836966.999693-4.458089z"/></g><path d="m220.59282 92.220741h23.522575v23.522575h-23.522575z" fill="none" stroke="#000"/><path d="m231.86587 118.43787 5.42547 7.28388 3.09547 4.1558" fill="none" marker-end="url(#a)" opacity=".5" stroke="#000" stroke-width=".629654"/><text font-family="Times New Roman" font-size="19.021193" letter-spacing="0" transform="scale(.97934197 1.0210938)" word-spacing="0" x="228.65195" y="108.39364"><tspan x="228.65195" y="108.39364">W</tspan></text></g></svg>