<svg height="46.187904mm" viewBox="0 0 423.44979 163.65793" width="119.50694mm" xmlns="http://www.w3.org/2000/svg" xmlns:xlink="http://www.w3.org/1999/xlink"><marker id="a" orient="auto" overflow="visible" refX="0" refY="0"><path d="m0 0 5-5-17.5 5 17.5 5z" fill-rule="evenodd" stroke="#000" stroke-width="1pt" transform="matrix(-.8 0 0 -.8 -10 0)"/></marker><marker id="b" orient="auto" overflow="visible" refX="0" refY="0"><path d="m0 0 5-5-17.5 5 17.5 5z" fill-rule="evenodd" stroke="#000" stroke-width="1pt" transform="matrix(-.8 0 0 -.8 -10 0)"/></marker><marker id="c" orient="auto" overflow="visible" refX="0" refY="0"><path d="m0 0 5-5-17.5 5 17.5 5z" fill-rule="evenodd" stroke="#000" stroke-width="1pt" transform="matrix(-.8 0 0 -.8 -10 0)"/></marker><marker id="d" orient="auto" overflow="visible" refX="0" refY="0"><path d="m0 0 5-5-17.5 5 17.5 5z" fill-rule="evenodd" stroke="#000" stroke-width="1pt" transform="matrix(-.8 0 0 -.8 -10 0)"/></marker><marker id="e" orient="auto" overflow="visible" refX="0" refY="0"><path d="m0 0 5-5-17.5 5 17.5 5z" fill-rule="evenodd" stroke="#000" stroke-width="1pt" transform="matrix(-.8 0 0 -.8 -10 0)"/></marker><g transform="translate(-56.539589 -79.178362)"><g stroke="#000"><g fill="none" transform="matrix(.67046312 0 0 .67046312 105.52619 46.860766)"><path d="m355.46731 190.5841s.63396.20884 14.17673 0c20.31692-.32633 26.78043-32.29281 42.30832-32.83116h15.65437" stroke-width="1.5"/><g stroke-width=".7"><path d="m392.87484 155.55024v36.73992"/><path d="m356.71392 173.9202h70.21641"/></g></g><path d="m121.90495 101.9668 99.58729 45.26695" fill="none" marker-end="url(#d)" opacity=".5"/><path d="m121.90495 226.18774 99.79783-46.31967" fill="none" marker-end="url(#c)" opacity=".5"/><path d="m257.35277 117.01401-.0851 11.10914" fill="none" marker-end="url(#b)" opacity=".5" stroke-width=".398"/><path d="m287.79467 162.88565 47.79874.32471" fill="none" marker-end="url(#e)" opacity=".5" stroke-width=".72065"/><path d="m82.303917 79.578362h30.291298v162.85793h-30.291298z" fill="#fff" stroke-width=".8"/><circle cx="256.13687" cy="162.24854" fill="none" r="31.909409" stroke-width=".900563"/></g><g transform="matrix(1.1 0 0 1.1 -260.5438 121.5751)"><path d="m325.23605-29.932627c-.54038.101325-.74302.506601-.74302.827449 0 .40528.32084.540374.55725.540374.50662 0 .86123-.439054.86123-.894996 0-.709241-.81056-1.030088-1.5198-1.030088-1.03009 0-1.60424 1.013202-1.75621 1.33405-.3884-1.266503-1.43538-1.33405-1.73934-1.33405-1.72244 0-2.63433 2.212157-2.63433 2.583665 0 .06755.0675.151981.18575.151981.1351 0 .16888-.101325.20265-.168867.57415-1.874424 1.70555-2.229046 2.19527-2.229046.75991 0 .91188.709243.91188 1.114523 0 .371508-.10137.759901-.30396 1.570464l-.57415 2.313477c-.2533 1.013203-.74301 1.94197-1.63801 1.94197-.0844 0-.5066 0-.86121-.219526.60791-.118212.74301-.624809.74301-.827449 0-.337734-.2533-.540374-.57415-.540374-.40528 0-.84434.35462-.84434.894995 0 .709242.79368 1.030089 1.51981 1.030089.81055 0 1.3847-.641695 1.73933-1.33405.27019.996315 1.11452 1.33405 1.73932 1.33405 1.72245 0 2.63433-2.212159 2.63433-2.583665 0-.08444-.0675-.151981-.16886-.151981-.15198 0-.16887.08444-.21953.219527-.45594 1.48603-1.43537 2.178384-2.19527 2.178384-.59104 0-.91188-.439053-.91188-1.131409 0-.371507.0675-.641693.33773-1.756216l.59103-2.296591c.2533-1.013202.82745-1.756218 1.60424-1.756218.0337 0 .5066 0 .86123.219528z"/><path d="m332.13286-24.101082c0-1.204585-.12388-1.936341-.49535-2.656841-.49534-.990686-1.40723-1.238358-2.0264-1.238358-1.41849 0-1.93634 1.058233-2.09395 1.373452-.40529.821819-.4278 1.936341-.4278 2.521747 0 .743015.0337 1.880053.57415 2.780676.51786.833078 1.35094 1.046976 1.9476 1.046976.54037 0 1.50855-.168867 2.07144-1.283389.41653-.810562.45031-1.812507.45031-2.544263zm-2.52175 3.512434c-.38276 0-1.15955-.180125-1.39596-1.362194-.12388-.641695-.12388-1.699929-.12388-2.285334 0-.776789 0-1.564834.12388-2.184013.23641-1.148295 1.11451-1.260873 1.39596-1.260873.38276 0 1.15955.191383 1.38471 1.215841.13509.61918.13509 1.463515.13509 2.229045 0 .66421 0 1.677413-.13509 2.307849-.23641 1.182069-1.0132 1.339679-1.38471 1.339679z"/></g><g transform="matrix(1.1 0 0 1.1 -278.20856 156.46989)"><path d="m341.31641-29.932627c-.54038.101325-.74301.506601-.74301.827449 0 .40528.32083.540374.55725.540374.50661 0 .86122-.439054.86122-.894996 0-.709241-.81056-1.030088-1.5198-1.030088-1.03009 0-1.60424 1.013202-1.75621 1.33405-.3884-1.266503-1.43538-1.33405-1.73934-1.33405-1.72244 0-2.63432 2.212157-2.63432 2.583665 0 .06755.0675.151981.18576.151981.13509 0 .16886-.101325.20264-.168867.57415-1.874424 1.70555-2.229046 2.19526-2.229046.75991 0 .91189.709243.91189 1.114523 0 .371508-.10138.759901-.30397 1.570464l-.57415 2.313477c-.2533 1.013203-.74301 1.94197-1.638 1.94197-.0844 0-.50661 0-.86122-.219526.60791-.118212.74301-.624809.74301-.827449 0-.337734-.2533-.540374-.57415-.540374-.40527 0-.84434.35462-.84434.894995 0 .709242.79368 1.030089 1.51982 1.030089.81055 0 1.3847-.641695 1.73932-1.33405.27019.996315 1.11453 1.33405 1.73933 1.33405 1.72245 0 2.63432-2.212159 2.63432-2.583665 0-.08444-.0675-.151981-.16886-.151981-.15198 0-.16886.08444-.21952.219527-.45594 1.48603-1.43538 2.178384-2.19528 2.178384-.59104 0-.91188-.439053-.91188-1.131409 0-.371507.0675-.641693.33773-1.756216l.59104-2.296591c.2533-1.013202.82745-1.756218 1.60424-1.756218.0337 0 .5066 0 .86122.219528z"/><path d="m346.24311-27.681062c0-.303961-.0225-.315219-.32649-.315219-.46156.450312-1.05822.720499-2.12771.720499v.371508c.30395 0 .91187 0 1.56482-.30396v5.775251c0 .416539-.0337.551632-1.10326.551632h-.39402v.371507c.46157-.03378 1.42975-.03378 1.93635-.03378s1.48602 0 1.9476.03378v-.371507h-.39403c-1.0695 0-1.10326-.135093-1.10326-.551632z"/></g><g transform="matrix(1.1 0 0 1.1 -295.98984 253.52995)"><path d="m357.39677-29.932627c-.54037.101325-.74301.506601-.74301.827449 0 .40528.32084.540374.55726.540374.5066 0 .86121-.439054.86121-.894996 0-.709241-.81056-1.030088-1.51979-1.030088-1.03009 0-1.60424 1.013202-1.75622 1.33405-.3884-1.266503-1.43537-1.33405-1.73934-1.33405-1.72243 0-2.63432 2.212157-2.63432 2.583665 0 .06755.0675.151981.18576.151981.13509 0 .16886-.101325.20264-.168867.57415-1.874424 1.70555-2.229046 2.19526-2.229046.75991 0 .91189.709243.91189 1.114523 0 .371508-.10138.759901-.30396 1.570464l-.57415 2.313477c-.2533 1.013203-.74302 1.94197-1.638 1.94197-.0845 0-.50662 0-.86123-.219526.60791-.118212.74302-.624809.74302-.827449 0-.337734-.2533-.540374-.57416-.540374-.40527 0-.84433.35462-.84433.894995 0 .709242.79367 1.030089 1.51981 1.030089.81056 0 1.3847-.641695 1.73933-1.33405.27018.996315 1.11452 1.33405 1.73932 1.33405 1.72245 0 2.63433-2.212159 2.63433-2.583665 0-.08444-.0675-.151981-.16887-.151981-.15197 0-.16886.08444-.21952.219527-.45594 1.48603-1.43538 2.178384-2.19528 2.178384-.59104 0-.91187-.439053-.91187-1.131409 0-.371507.0675-.641693.33772-1.756216l.59104-2.296591c.2533-1.013202.82745-1.756218 1.60424-1.756218.0337 0 .5066 0 .86122.219528z"/><path d="m361.04007-22.356123c.0337-.168868.14636-.596664.18013-.76553.15761-.607921.15761-.619179.41655-.990687.3715-.551632.90061-1.046976 1.65488-1.046976.40529 0 .6417.236414.6417.765531 0 .619179-.47282 1.902568-.68672 2.454201-.14635.371507-.14635.439053-.14635.585405 0 .641695.52911.956914 1.0132.956914 1.10326 0 1.56484-1.576093 1.56484-1.722444 0-.112575-.09-.146352-.16888-.146352-.13508 0-.15761.0788-.19137.191383-.27019.92314-.74303 1.362194-1.17081 1.362194-.18013 0-.27019-.112575-.27019-.371508 0-.258929.09-.506601.20264-.788046.16886-.427796.66421-1.722443.66421-2.35288 0-.844335-.58541-1.249615-1.39598-1.249615-.91187 0-1.49728.551631-1.82376.979427-.0788-.619179-.57415-.979427-1.14829-.979427-.40528 0-.68672.258928-.86685.607921-.27018.529116-.38277 1.092006-.38277 1.114521 0 .101325.0788.146352.16887.146352.14635 0 .1576-.04502.23642-.337734.13508-.551633.33773-1.215843.81056-1.215843.2927 0 .36025.281445.36025.529118 0 .20264-.0562.416537-.14635.788045-.0225.09006-.19139.754272-.23641.911882l-.41656 1.68867c-.045.168867-.11262.450312-.11262.495343 0 .25893.2139.348993.36025.348993.20264 0 .37151-.135094.45031-.270188.0338-.06755.12388-.450313.18013-.686726l.25892-1.001944z"/></g><g transform="translate(468.28292 -55.764295)"><path d="m-222.97652 149.77156h23.522575v23.522575h-23.522575z" fill="none" stroke="#000"/><path d="m364.16866 4.0598181c.0135-.054037.0405-.1350936.0405-.2026404 0-.1350936-.13509-.1350936-.16211-.1350936-.0135 0-.49985.040528-.74301.067547-.22966.013509-.4323.040528-.67547.054037-.32423.027019-.41879.040528-.41879.2836966 0 .1350936.13509.1350936.27018.1350936.68898 0 .68898.1215842.68898.2566778 0 .094565-.10807.486337-.16211.7295054l-.32422 1.2968986c-.1351.5403744-.90513 3.6069989-.95917 3.8501679-.0675.337734-.0675.567393-.0675.743014 0 1.377956.77004 2.093952 1.64815 2.093952 1.56708 0 3.1882-2.012895 3.1882-3.9717525 0-1.2428612-.70248-2.1209696-1.71568-2.1209696-.70249 0-1.33743.5809025-1.59411.8510897l.98618-3.9312237zm-.85109 8.9026679c-.43229 0-.90512-.324224-.90512-1.377954 0-.445809.0405-.702487.28369-1.6481423.0405-.1756217.25668-1.0402208.31072-1.2158424.027-.1080749.82407-1.310408 1.74271-1.310408.59441 0 .8646.5944119.8646 1.2968986 0 .6484493-.37827 2.1750071-.716 2.8774941-.33773.729505-.95916 1.377954-1.5806 1.377954z" transform="matrix(1.25 0 0 1.2500001 -666.91944 150.80095)"/></g><path d="m65.013808 160.04223 3.081553-3.53315c.29221-.34535.5313-.55786 2.73619-.55786v-1.1423c-1.48764.0532-1.54077.0532-2.44398.0532-.770393 0-1.912683 0-2.656503-.0532v1.1423c.50473 0 1.0626.13277 1.0626.31878 0 .0532-.13282.23908-.18596.29221l-2.31115 2.60337-2.62994-3.21436h1.11573v-1.1423c-.611.0532-2.41742.0532-3.13468.0532-.79695 0-2.23146 0-2.97528-.0532v1.1423h1.88612l4.14414 5.04735-3.45345 3.90505c-.31878.37192-.50474.55788-2.70964.55788v1.14229c1.59391-.0532 1.64704-.0532 2.47055-.0532.77039 0 1.88612 0 2.62994.0532v-1.14229c-.50474 0-1.0626-.13277-1.0626-.31879 0-.0266 0-.0532.18595-.26564l2.65651-3.00186 2.94872 3.58629h-1.11574v1.14229c.63757-.0532 2.41742-.0532 3.161253-.0532.79695 0 2.20489 0 2.94871.0532v-1.14229h-1.85955z"/><path d="m266.77147 172.28284 2.04329-5.40374h-.42217c-.65858 1.75621-2.44857 2.90451-4.39054 3.41111-.35462.0844-2.00952.52349-5.25176.52349h-10.18268l8.59533-10.08136c.1182-.13509.15198-.18575.15198-.27019 0-.0338 0-.0844-.11821-.2533l-7.8692-10.75683h9.25391c2.26282 0 3.79951.23642 3.95149.27019.91188.13509 2.38102.42217 3.71507 1.2665.42217.27019 1.57047 1.03009 2.14462 2.39791h.42216l-2.04329-4.74516h-19.96008c-.38839 0-.40528.0169-.45594.11821-.0169.0507-.0169.37151-.0169.55726l8.93307 12.22597-8.74732 10.25023c-.16886.20264-.16886.28707-.16886.30396 0 .18575.15198.18575.45594.18575h19.96008z"/><g transform="matrix(1.7793621 0 0 1.779362 397.31379 142.47607)"><path d="m27.551395 8.5262952c.270188 0 .378262 0 .378262-.2566778 0-.1350936-.108074-.1350936-.351243-.1350936h-1.094258c.256678-1.3914641.445809-2.3506287.553884-2.7829282.08106-.3242246.364752-.6349399.715996-.6349399.283696 0 .567393.1215842.702486.2431685-.526865.054037-.688977.4458089-.688977.675468 0 .2701872.20264.4322995.459318.4322995.270188 0 .675468-.2296591.675468-.7430148 0-.5673931-.567393-.8781084-1.161805-.8781084-.580902 0-1.148295.4322995-1.418482.9591646-.243169.4728276-.378263.9591645-.688978 2.7288907h-.905127c-.256678 0-.391771 0-.391771.2431685 0 .1486029.08106.1486029.351243.1486029h.864599c-.243168 1.2563705-.797052 4.3094858-1.107767 5.7549878-.22966 1.175314-.4323 2.161497-1.107768 2.161497-.04053 0-.4323 0-.675468-.256678.688977-.05404.688977-.648449.688977-.661958 0-.270188-.20264-.4323-.459318-.4323-.270187 0-.675468.229659-.675468.743015 0 .580902.594412.878108 1.121277.878108 1.377955 0 1.945348-2.472213 2.093951-3.147681.243168-1.04022.905127-4.63371.972674-5.0389908z"/><path d="m33.879179 17.239832c0-.04053 0-.06755-.229659-.297206-1.350936-1.364445-2.10746-3.593489-2.10746-6.349399 0-2.6208155.63494-4.8768787 2.202026-6.4709831.135093-.1215843.135093-.148603.135093-.1891311 0-.081056-.06755-.1080749-.121584-.1080749-.175622 0-1.283389.972674-1.945348 2.2965912-.688977 1.3644454-.999693 2.8099469-.999693 4.4715979 0 1.202333.189132 2.809947.891618 4.255449.797052 1.621123 1.90482 2.499231 2.053423 2.499231.05404 0 .121584-.02702.121584-.108075z"/><path d="m39.185436 10.620246 1.567086-1.7967449c.148603-.1756216.270187-.2836965 1.391464-.2836965v-.5809025c-.756524.027019-.783543.027019-1.242861.027019-.391772 0-.972674 0-1.350936-.027019v.5809025c.256677 0 .540374.067547.540374.1621123 0 .027019-.06755.1215842-.09457.148603l-1.175314 1.3239171-1.337427-1.6346324h.567394v-.5809025c-.310716.027019-1.229352.027019-1.594105.027019-.405281 0-1.134786 0-1.513048-.027019v.5809025h.959164l2.107461 2.5667784-1.756217 1.985876c-.162113.189131-.256678.283696-1.377955.283696v.580903c.810562-.02702.83758-.02702 1.25637-.02702.391772 0 .959165 0 1.337427.02702v-.580903c-.256678 0-.540374-.06755-.540374-.162112 0-.01351 0-.02702.09457-.135093l1.350936-1.526558 1.499539 1.823763h-.567393v.580903c.324225-.02702 1.229352-.02702 1.607614-.02702.405281 0 1.121277 0 1.499539.02702v-.580903h-.945655l-2.283082-2.755909z"/><path d="m46.463604 10.593227c0-1.0267111-.135094-2.7018717-.891618-4.2689575-.797052-1.6211232-1.90482-2.4992316-2.053423-2.4992316-.05404 0-.121584.027019-.121584.1080749 0 .040528 0 .067547.229659.2972059 1.350936 1.3644454 2.10746 3.5934898 2.10746 6.3493993 0 2.620816-.63494 4.876879-2.202026 6.470983-.135093.121585-.135093.148603-.135093.189131 0 .08106.06755.108075.121584.108075.175622 0 1.283389-.972674 1.945348-2.296591.688977-1.377955.999693-2.836966.999693-4.458089z"/></g><path d="m311.18565 196.15814c0-.0507 0-.0844-.28707-.37151-1.68867-1.70556-2.63433-4.49186-2.63433-7.93675 0-3.27602.79368-6.0961 2.75254-8.08873.16886-.15198.16886-.18575.16886-.23641 0-.10132-.0844-.13509-.15198-.13509-.21952 0-1.60423 1.21584-2.43168 2.87074-.86122 1.70555-1.24962 3.51243-1.24962 5.58949 0 1.50292.23642 3.51244 1.11453 5.31931.99631 2.02641 2.38102 3.12404 2.56677 3.12404.0676 0 .15198-.0338.15198-.13509z"/><path d="m317.81791 187.88366 1.95885-2.24593c.18576-.21953.33774-.35463 1.73933-.35463v-.72612c-.94565.0338-.97943.0338-1.55357.0338-.48972 0-1.21585 0-1.68867-.0338v.72612c.32084 0 .67546.0844.67546.20265 0 .0338-.0844.15198-.11821.18575l-1.46914 1.6549-1.67178-2.0433h.70924v-.72612c-.3884.0338-1.53669.0338-1.99263.0338-.5066 0-1.41849 0-1.89131-.0338v.72612h1.19895l2.63433 3.20848-2.19527 2.48234c-.20264.23642-.32085.35462-1.72245.35462v.72613c1.01321-.0338 1.04698-.0338 1.57047-.0338.48971 0 1.19895 0 1.67178.0338v-.72613c-.32085 0-.67547-.0844-.67547-.20264 0-.0169 0-.0338.1182-.16886l1.68867-1.9082 1.87443 2.2797h-.70925v.72613c.40529-.0338 1.5367-.0338 2.00952-.0338.5066 0 1.4016 0 1.87443.0338v-.72613h-1.18207l-2.85385-3.44488z"/><path d="m326.91561 187.84988c0-1.28339-.16886-3.37734-1.11452-5.33619-.99631-2.02641-2.38102-3.12404-2.56677-3.12404-.0676 0-.15198.0338-.15198.13509 0 .0507 0 .0844.28707.37151 1.68867 1.70555 2.63432 4.49186 2.63432 7.93675 0 3.27602-.79367 6.09609-2.75253 8.08872-.16886.15199-.16886.18576-.16886.23642 0 .10132.0844.13509.15198.13509.21952 0 1.60423-1.21584 2.43168-2.87074.86122-1.72244 1.24961-3.5462 1.24961-5.57261z"/><circle cx="369.61481" cy="162.24854" fill="none" r="31.909409" stroke="#000" stroke-width=".900563"/><path d="m402.75166 162.88565 28.00761.32471" fill="none" marker-end="url(#a)" opacity=".5" stroke="#000" stroke-width=".72065"/><path d="m184.91379 223.33551c.0337-.16886.14636-.59666.18012-.76553.15761-.60792.15761-.61918.41655-.99068.3715-.55164.90061-1.04698 1.65489-1.04698.40529 0 .6417.23641.6417.76553 0 .61918-.47283 1.90257-.68673 2.4542-.14635.37151-.14635.43906-.14635.58541 0 .64169.52912.95691 1.0132.95691 1.10327 0 1.56484-1.57609 1.56484-1.72244 0-.11258-.09-.14635-.16887-.14635-.13509 0-.15762.0788-.19138.19138-.27019.92314-.74302 1.36219-1.17081 1.36219-.18013 0-.27019-.11257-.27019-.37151 0-.25892.09-.5066.20264-.78804.16886-.4278.66421-1.72244.66421-2.35288 0-.84434-.58541-1.24962-1.39597-1.24962-.91188 0-1.49729.55163-1.82377.97943-.0787-.61918-.57415-.97943-1.14828-.97943-.40529 0-.68673.25893-.86685.60792-.27019.52912-.38278 1.09201-.38278 1.11453 0 .10132.0788.14635.16888.14635.14635 0 .1576-.045.23641-.33774.13509-.55163.33774-1.21584.81056-1.21584.2927 0 .36025.28144.36025.52912 0 .20264-.0563.41654-.14635.78804-.0225.0901-.19139.75428-.23641.91189l-.41655 1.68867c-.045.16886-.11263.45031-.11263.49534 0 .25893.2139.34899.36025.34899.20264 0 .37152-.13509.45032-.27019.0337-.0676.12387-.45031.18012-.68672l.25893-1.00195z"/><path d="m187.5964 116.25666c0-1.20459-.12388-1.93634-.49534-2.65684-.49534-.99069-1.40723-1.23836-2.0264-1.23836-1.41849 0-1.93635 1.05824-2.09395 1.37345-.40529.82182-.4278 1.93634-.4278 2.52175 0 .74301.0337 1.88005.57415 2.78068.51785.83307 1.35094 1.04697 1.9476 1.04697.54037 0 1.50854-.16886 2.07144-1.28339.41653-.81056.4503-1.8125.4503-2.54426zm-2.52174 3.51243c-.38278 0-1.15956-.18012-1.39598-1.36219-.12387-.6417-.12387-1.69993-.12387-2.28533 0-.77679 0-1.56484.12387-2.18402.23642-1.14829 1.11453-1.26087 1.39598-1.26087.38276 0 1.15955.19138 1.3847 1.21584.1351.61918.1351 1.46352.1351 2.22905 0 .66421 0 1.67741-.1351 2.30785-.23641 1.18206-1.0132 1.33967-1.3847 1.33967z"/><path d="m299.08925 190.78722c.72613-.82745 1.31716-1.35094 2.1615-2.11084 1.0132-.87811 1.45226-1.30027 1.68867-1.55357 1.18207-1.16519 1.7731-2.14461 1.7731-2.27971 0-.13509-.13509-.13509-.16886-.13509-.11821 0-.15198.0676-.23642.18575-.42216.72613-.82745 1.08075-1.2665 1.08075-.35462 0-.54037-.15198-.86122-.55726-.35462-.42217-.6417-.70924-1.13141-.70924-1.23273 0-1.97574 1.53669-1.97574 1.89131 0 .0507.0169.15198.16886.15198.1351 0 .15198-.0676.20264-.18575.28708-.67547 1.09764-.79368 1.41849-.79368.35462 0 .69235.1182 1.04697.27019.6417.27018.91188.27018 1.08075.27018.11821 0 .18575 0 .27019-.0169-.55726.65859-1.46915 1.46915-2.22905 2.1615l-1.70555 1.57047c-1.03009 1.04697-1.6549 2.04329-1.6549 2.16149 0 .10133.0844.1351.18575.1351.10132 0 .11821-.0169.23642-.21953.27018-.42217.81056-1.04698 1.43537-1.04698.35462 0 .52348.11822.86122.54038.32085.37151.60792.72613 1.14829.72613 1.6549 0 2.60056-2.14461 2.60056-2.53301 0-.0676-.0169-.16887-.18576-.16887-.13509 0-.15198.0675-.20264.23642-.37151.99631-1.36782 1.40159-2.0264 1.40159-.35462 0-.69236-.11821-1.04698-.27018-.67547-.27019-.86122-.27019-1.08075-.27019-.16886 0-.35462 0-.5066.0676z"/><path d="m173.85906 114.05847c.48771 1.33011 1.86213 1.57397 2.70454 1.57397 1.68479 0 2.68236-1.46311 3.30309-2.99274.50987-1.28576 1.3301-4.21198 1.3301-5.5199 0-1.35229-.68722-1.48528-.88675-1.48528-.53203 0-1.01975.53202-1.01975.97539 0 .26603.1552.42122.26604.50989.19951.1995.7759.79804.7759 1.9508 0 .75374-.62073 2.83754-1.08627 3.87946-.6207 1.35228-1.44093 2.23901-2.59368 2.23901-1.24143 0-1.64045-.93108-1.64045-1.95082 0-.64288.1995-1.41877.28816-1.79564l.93109-3.72426c.11079-.44338.31035-1.21928.31035-1.30794 0-.33254-.26602-.55422-.59855-.55422-.64289 0-.79806.55422-.93105 1.08627-.2217.86455-1.15277 4.611-1.24144 5.0987-.0886.37687-.0886.62072-.0886 1.10842 0 .53204-.7094 1.37444-.73156 1.41878-.24386.24385-.59853.62071-1.28576.62071-1.7513 0-1.7513-1.66263-1.7513-2.03949 0-.70938.15517-1.6848 1.15275-4.32282.26603-.68724.37686-.97541.37686-1.41879 0-.93106-.66505-1.77345-1.75129-1.77345-2.0395 0-2.85973 3.2144-2.85973 3.39175 0 .0886.0887.19952.24387.19952.19951 0 .22167-.0887.31034-.39903.55422-1.95082 1.41878-2.74889 2.23901-2.74889.22168 0 .5764.0222.5764.73155 0 .1108 0 .5764-.37688 1.5518-1.04192 2.77104-1.2636 3.67994-1.2636 4.52234 0 2.32768 1.90648 2.74888 3.03706 2.74888.37686 0 1.37443 0 2.26118-1.57397z"/><path d="m175.85906 220.05847c.48771 1.33011 1.86213 1.57397 2.70454 1.57397 1.68479 0 2.68236-1.46311 3.30309-2.99274.50987-1.28576 1.3301-4.21198 1.3301-5.5199 0-1.35229-.68722-1.48528-.88675-1.48528-.53203 0-1.01975.53202-1.01975.97539 0 .26603.1552.42122.26604.50989.19951.1995.7759.79804.7759 1.9508 0 .75374-.62073 2.83754-1.08627 3.87946-.6207 1.35228-1.44093 2.23901-2.59368 2.23901-1.24143 0-1.64045-.93108-1.64045-1.95082 0-.64288.1995-1.41877.28816-1.79564l.93109-3.72426c.11079-.44338.31035-1.21928.31035-1.30794 0-.33254-.26602-.55422-.59855-.55422-.64289 0-.79806.55422-.93105 1.08627-.2217.86455-1.15277 4.611-1.24144 5.0987-.0886.37687-.0886.62072-.0886 1.10842 0 .53204-.7094 1.37444-.73156 1.41878-.24386.24385-.59853.62071-1.28576.62071-1.7513 0-1.7513-1.66263-1.7513-2.03949 0-.70938.15517-1.6848 1.15275-4.32282.26603-.68724.37686-.97541.37686-1.41879 0-.93106-.66505-1.77345-1.75129-1.77345-2.0395 0-2.85973 3.2144-2.85973 3.39175 0 .0886.0887.19952.24387.19952.19951 0 .22167-.0887.31034-.39903.55422-1.95082 1.41878-2.74889 2.23901-2.74889.22168 0 .5764.0222.5764.73155 0 .1108 0 .5764-.37688 1.5518-1.04192 2.77104-1.2636 3.67994-1.2636 4.52234 0 2.32768 1.90648 2.74888 3.03706 2.74888.37686 0 1.37443 0 2.26118-1.57397z"/></g></svg>