<svg width="23cm" height="11cm" viewBox="315 5 200 260" xmlns="http://www.w3.org/2000/svg" xmlns:xlink="http://www.w3.org/1999/xlink"><g><ellipse cx="355" cy="45" rx="35" ry="35" fill="#7f7f7f"/><ellipse cx="355" cy="45" rx="35" ry="35" fill="none" fill-opacity="0" stroke-width="4" stroke="#000000"/><line x1="310.264" y1="44.971" x2="154.371" y2="44.514" fill="none" fill-opacity="0" stroke-width="2" stroke="#000000"/><polygon points="317.764,44.9934 307.749,49.9641 310.264,44.9715 307.779,39.9641" fill="#000000" stroke-width="2" stroke="#000000"/><path d="M 154.371 44.5144 C 154.383,40.5144 158.395,36.5262 162.395,36.5379 C 166.395,36.5496 170.383,40.5613 170.371,44.5613 C 170.359,48.5613 166.348,52.5495 162.348,52.5378 C 158.348,52.5261 154.359,48.5144 154.371,44.5144z" fill="#000000" stroke-width="2" stroke="#000000"/><line x1="313.795" y1="62.409" x2="154.337" y2="134.6" fill="none" fill-opacity="0" stroke-width="2" stroke="#000000"/><polygon points="320.627,59.3162 313.579,67.9955 313.795,62.4094 309.455,58.8856" fill="#000000" stroke-width="2" stroke="#000000"/><line x1="322.945" y1="76.183" x2="154.302" y2="224.686" fill="none" fill-opacity="0" stroke-width="2" stroke="#000000"/><polygon points="328.574,71.2266 324.373,81.5878 322.945,76.1831 317.764,74.0828" fill="#000000" stroke-width="2" stroke="#000000"/><ellipse cx="355" cy="135" rx="35" ry="35" fill="#7f7f7f" stroke-width="4" stroke="#000000"/><line x1="310.264" y1="134.977" x2="154.337" y2="134.6" fill="none" fill-opacity="0" stroke-width="2" stroke="#000000"/><polygon points="317.764,134.995 307.752,139.97 310.264,134.977 307.776,129.97" fill="#000000"/><polygon points="317.764,134.995 307.752,139.97 310.264,134.977 307.776,129.97" fill="none" fill-opacity="0" stroke-width="2" stroke="#000000"/><path d="M 154.337 134.6 C 154.346,130.6 158.356,126.61 162.356,126.62 C 166.356,126.629 170.346,130.639 170.337,134.639 C 170.327,138.639 166.317,142.629 162.317,142.619 C 158.317,142.61 154.327,138.6 154.337,134.6z" fill="#000000"/><path d="M 154.337 134.6 C 154.346,130.6 158.356,126.61 162.356,126.62 C 166.356,126.629 170.346,130.639 170.337,134.639 C 170.327,138.639 166.317,142.629 162.317,142.619 C 158.317,142.61 154.327,138.6 154.337,134.6" fill="none" fill-opacity="0" stroke-width="2" stroke="#000000"/><line x1="313.796" y1="152.413" x2="154.302" y2="224.686" fill="none" fill-opacity="0" stroke-width="2" stroke="#000000"/><polygon points="320.627,149.317 313.583,157.999 313.796,152.413 309.455,148.89" fill="#000000" stroke-width="2" stroke="#000000"/><line x1="313.812" y1="117.551" x2="154.371" y2="44.514" fill="none" fill-opacity="0" stroke-width="2" stroke="#000000"/><polygon points="320.631,120.675 309.457,121.056 313.812,117.551 313.622,111.964" fill="#000000" stroke-width="2" stroke="#000000"/><ellipse cx="355" cy="225" rx="35" ry="35" fill="#7f7f7f" stroke-width="4" stroke="#000000"/><line x1="310.264" y1="224.982" x2="154.302" y2="224.686" fill="none" fill-opacity="0" stroke-width="2" stroke="#000000"/><polygon points="317.764,224.996 307.754,229.977 310.264,224.982 307.773,219.977" fill="#000000" stroke-width="2" stroke="#000000"/><path d="M 154.302 224.686 C 154.31,220.686 158.317,216.694 162.317,216.701 C 166.317,216.709 170.31,220.716 170.302,224.716 C 170.294,228.716 166.287,232.709 162.287,232.701 C 158.287,232.694 154.294,228.686 154.302,224.686z" fill="#000000" stroke-width="2" stroke="#000000"/><line x1="313.81" y1="207.556" x2="154.337" y2="134.6" fill="none" fill-opacity="0" stroke-width="2" stroke="#000000"/><polygon points="320.631,210.676 309.457,211.062 313.81,207.556 313.617,201.969" fill="#000000" stroke-width="2" stroke="#000000"/><line x1="322.963" y1="193.798" x2="154.371" y2="44.514" fill="none" fill-opacity="0" stroke-width="2" stroke="#000000"/><polygon points="328.578,198.77 317.776,195.884 322.963,193.798 324.406,188.397" fill="#000000" stroke-width="2" stroke="#000000"/><ellipse cx="542.612" cy="90.185" rx="35" ry="35" fill="#7f7f7f" stroke-width="4" stroke="#000000"/><line x1="498.524" y1="86.694" x2="390" y2="45" fill="none" fill-opacity="0" stroke-width="2" stroke="#000000"/><polygon points="505.525,89.3835 494.397,90.4645 498.524,86.6937 497.983,81.1297" fill="#000000" stroke-width="2" stroke="#000000"/><line x1="500.856" y1="106.04" x2="390" y2="135" fill="none" fill-opacity="0" stroke-width="2" stroke="#000000"/><polygon points="508.113,104.145 499.701,111.51 500.856,106.04 497.173,101.834" fill="#000000" stroke-width="2" stroke="#000000"/><line x1="510.485" y1="121.286" x2="390" y2="225" fill="none" fill-opacity="0" stroke-width="2" stroke="#000000"/><polygon points="516.169,116.393 511.852,126.706 510.485,121.286 505.329,119.127" fill="#000000" stroke-width="2" stroke="#000000"/><ellipse cx="542.612" cy="180.185" rx="35" ry="35" fill="#7f7f7f" stroke-width="4" stroke="#000000"/><line x1="498.514" y1="183.652" x2="390" y2="225" fill="none" fill-opacity="0" stroke-width="2" stroke="#000000"/><polygon points="505.522,180.982 497.958,189.215 498.514,183.652 494.398,179.87" fill="#000000" stroke-width="2" stroke="#000000"/><line x1="500.863" y1="164.304" x2="390" y2="135" fill="none" fill-opacity="0" stroke-width="2" stroke="#000000"/><polygon points="508.114,166.22 497.168,168.499 500.863,164.304 499.724,158.831" fill="#000000" stroke-width="2" stroke="#000000"/><line x1="510.496" y1="149.073" x2="390" y2="45" fill="none" fill-opacity="0" stroke-width="2" stroke="#000000"/><polygon points="516.172,153.975 505.336,151.223 510.496,149.073 511.872,143.655" fill="#000000" stroke-width="2" stroke="#000000"/><line x1="668.254" y1="90.205" x2="577.612" y2="90.185" fill="none" fill-opacity="0" stroke-width="2" stroke="#000000"/><polygon points="675.754,90.2063 665.753,95.2042 668.254,90.2047 665.755,85.2042" fill="#000000" stroke-width="2" stroke="#000000"/><line x1="668.27" y1="180.189" x2="577.612" y2="180.185" fill="none" fill-opacity="0" stroke-width="2" stroke="#000000"/><polygon points="675.77,180.19 665.77,185.189 668.27,180.189 665.77,175.189" fill="#000000" stroke-width="2" stroke="#000000"/></g></svg>